<?xml version="1.0" encoding="UTF-8" standalone="no"?>
<!-- Created with Inkscape (http://www.inkscape.org/) -->

<svg
   width="210mm"
   height="297mm"
   viewBox="0 0 210 297"
   version="1.1"
   id="svg5"
   xml:space="preserve"
   inkscape:version="1.2.1 (9c6d41e410, 2022-07-14)"
   sodipodi:docname="ctl_mapping.svg"
   xmlns:inkscape="http://www.inkscape.org/namespaces/inkscape"
   xmlns:sodipodi="http://sodipodi.sourceforge.net/DTD/sodipodi-0.dtd"
   xmlns="http://www.w3.org/2000/svg"
   xmlns:svg="http://www.w3.org/2000/svg"><sodipodi:namedview
     id="namedview7"
     pagecolor="#ffffff"
     bordercolor="#000000"
     borderopacity="0.25"
     inkscape:showpageshadow="2"
     inkscape:pageopacity="0.0"
     inkscape:pagecheckerboard="0"
     inkscape:deskcolor="#d1d1d1"
     inkscape:document-units="mm"
     showgrid="false"
     showguides="true"
     inkscape:zoom="3.5877004"
     inkscape:cx="189.39708"
     inkscape:cy="129.19139"
     inkscape:window-width="1920"
     inkscape:window-height="991"
     inkscape:window-x="-9"
     inkscape:window-y="-9"
     inkscape:window-maximized="1"
     inkscape:current-layer="layer1" /><defs
     id="defs2" /><g
     inkscape:label="Layer 1"
     inkscape:groupmode="layer"
     id="layer1"><path
       style="fill:none;stroke:#000000;stroke-width:0.185;stroke-dasharray:none;stroke-opacity:1"
       d="m 29.302691,98.940838 c -1.112482,-0.26296 -2.177996,-1.2471 -2.629375,-2.42857 l -0.185447,-0.4854 -0.02346,-37.972993 c -0.01689,-27.341609 0.0026,-38.130693 0.06976,-38.536251 0.254791,-1.539506 1.437902,-2.789675 2.94237,-3.109141 0.642065,-0.136339 81.772591,-0.136339 82.414661,0 1.50444,0.319461 2.68748,1.569531 2.94241,3.109141 0.0672,0.405732 0.0867,11.182885 0.0698,38.536251 l -0.0235,37.972993 -0.18545,0.4854 c -0.37399,0.9789 -1.09834,1.76246 -2.04301,2.21001 l -0.56554,0.26793 -41.232666,0.0129 c -23.75432,0.007 -41.367399,-0.019 -41.550511,-0.0623 z m 8.2312,-5.0674 c 0.128895,-0.24084 0.116475,-3.24487 -0.01395,-3.3753 -0.146051,-0.14605 -7.101416,-0.14605 -7.247467,0 -0.143355,0.14336 -0.143355,3.29411 0,3.43747 0.07578,0.0758 1.000286,0.1016 3.637689,0.1016 3.409373,0 3.539228,-0.006 3.623733,-0.16377 z m 9.073113,0.0237 c 0.0891,-0.10736 0.1162,-0.49924 0.1162,-1.68032 0,-1.18108 -0.0271,-1.57296 -0.1162,-1.68032 -0.1047,-0.12615 -0.46678,-0.14001 -3.658856,-0.14001 -3.415865,0 -3.545791,0.006 -3.6303,0.16377 -0.05097,0.0952 -0.08764,0.79223 -0.08764,1.6655 0,1.27856 0.02082,1.52474 0.140122,1.65656 0.131432,0.14523 0.356599,0.15484 3.6303,0.15484 3.143254,0 3.501724,-0.0139 3.606374,-0.14002 z m 9.08482,0.007 c 0.11109,-0.11109 0.13305,-0.38444 0.13305,-1.65657 0,-0.88828 -0.0365,-1.5918 -0.0876,-1.68728 -0.0845,-0.15791 -0.21444,-0.16377 -3.6303,-0.16377 -3.19208,0 -3.55416,0.0139 -3.65886,0.14001 -0.0891,0.10736 -0.1162,0.49924 -0.1162,1.68032 0,1.18108 0.0271,1.57296 0.1162,1.68032 0.10466,0.12611 0.46361,0.14002 3.61345,0.14002 3.06644,0 3.51365,-0.0164 3.6303,-0.13305 z m 9.09078,0.0314 c 0.14336,-0.14336 0.14336,-3.29411 0,-3.43747 -0.14605,-0.14605 -7.10142,-0.14605 -7.24747,0 -0.0718,0.0718 -0.1016,0.56686 -0.1016,1.68729 0,1.32864 0.0216,1.60725 0.13305,1.71873 0.11665,0.11665 0.56327,0.13305 3.62373,0.13305 2.60209,0 3.51655,-0.0259 3.59229,-0.1016 z m 9.1138,-0.0866 c 0.19549,-0.27909 0.19442,-3.12378 -0.001,-3.31944 -0.11667,-0.11667 -0.56438,-0.13305 -3.63587,-0.13305 h -3.50282 l -0.1318,0.18817 c -0.10678,0.15246 -0.1318,0.46227 -0.1318,1.63216 0,1.1699 0.025,1.47971 0.1318,1.63216 l 0.1318,0.18818 h 3.50407 3.50406 z m 9.10349,0.0244 c 0.12889,-0.24084 0.11647,-3.24487 -0.0139,-3.3753 -0.14605,-0.14605 -7.10142,-0.14605 -7.24747,0 -0.0719,0.0719 -0.1016,0.57385 -0.1016,1.71873 0,1.14488 0.0297,1.64681 0.1016,1.71874 0.0758,0.0758 1.00029,0.1016 3.63769,0.1016 3.40937,0 3.53923,-0.006 3.62373,-0.16377 z m 9.09984,-0.0244 c 0.10679,-0.15245 0.1318,-0.46226 0.1318,-1.63216 0,-1.16989 -0.025,-1.4797 -0.1318,-1.63216 l -0.1318,-0.18817 h -3.54822 c -3.42137,0 -3.55135,0.006 -3.63586,0.16377 -0.051,0.0952 -0.0876,0.79223 -0.0876,1.6655 0,1.27856 0.0208,1.52474 0.14012,1.65656 0.13144,0.14524 0.35677,0.15484 3.63586,0.15484 h 3.49575 z m 9.058086,0.0551 c 0.11109,-0.11109 0.13305,-0.38444 0.13305,-1.65657 0,-0.88828 -0.0365,-1.5918 -0.0876,-1.68728 -0.0845,-0.1579 -0.21436,-0.16377 -3.623727,-0.16377 -2.637409,0 -3.561909,0.0258 -3.637689,0.1016 -0.0719,0.0719 -0.1016,0.57385 -0.1016,1.71873 0,1.14488 0.0297,1.64681 0.1016,1.71874 0.0757,0.0757 0.99019,0.1016 3.592279,0.1016 3.060467,0 3.507087,-0.0164 3.623737,-0.13305 z m -63.724456,-6.01009 c 0.182992,-0.12817 0.188172,-0.17518 0.188172,-1.70783 0,-1.3477 -0.0203,-1.59846 -0.140122,-1.73087 -0.131383,-0.14517 -0.355412,-0.15483 -3.592286,-0.15483 -3.025442,0 -3.468609,0.0165 -3.585211,0.13305 -0.111552,0.11155 -0.133048,0.39119 -0.133048,1.73086 0,1.55516 0.005,1.60134 0.188172,1.72962 0.162612,0.1139 0.643095,0.1318 3.537162,0.1318 2.894067,0 3.37455,-0.0179 3.537161,-0.1318 z m 9.12549,0.0116 c 0.15279,-0.11172 0.16435,-0.23429 0.16435,-1.74249 0,-1.5082 -0.0116,-1.63077 -0.16435,-1.74249 -0.13553,-0.0991 -0.76531,-0.12018 -3.591667,-0.12018 -3.07034,0 -3.443444,0.0146 -3.582151,0.14012 -0.139281,0.12605 -0.154833,0.29614 -0.154833,1.69334 0,1.44032 0.01231,1.56551 0.169333,1.72254 0.163732,0.16373 0.282222,0.16933 3.582151,0.16933 2.813837,0 3.441667,-0.0211 3.577167,-0.12017 z m 9.07784,-0.0116 c 0.183,-0.12817 0.18818,-0.17518 0.18818,-1.70783 0,-1.3477 -0.0203,-1.59846 -0.14013,-1.73087 -0.13137,-0.14516 -0.35509,-0.15483 -3.58215,-0.15483 -2.83751,0 -3.47089,0.0211 -3.60637,0.12007 -0.14825,0.10829 -0.16719,0.25022 -0.19329,1.44816 -0.0159,0.73045 -0.005,1.45625 0.0245,1.61288 0.10623,0.56624 -0.0442,0.54422 3.71699,0.54422 2.94395,0 3.42955,-0.0178 3.59228,-0.1318 z m 9.09268,-0.008 c 0.13952,-0.12627 0.15483,-0.29727 0.15483,-1.72962 0,-1.33211 -0.0215,-1.61104 -0.13305,-1.72254 -0.11658,-0.11659 -0.55843,-0.13305 -3.5705,-0.13305 -3.07977,0 -3.45356,0.0146 -3.59228,0.14012 -0.13954,0.12628 -0.15484,0.29731 -0.15484,1.73087 0,1.54785 0.005,1.5943 0.18818,1.72254 0.16268,0.11395 0.64625,0.1318 3.5705,0.1318 3.02847,0 3.39852,-0.0147 3.53716,-0.14012 z m 9.1295,-0.0292 c 0.15663,-0.15663 0.16933,-0.28222 0.16933,-1.67449 0,-1.22526 -0.0245,-1.54016 -0.1318,-1.69334 l -0.1318,-0.18817 h -3.50407 -3.50406 l -0.1318,0.18817 c -0.10729,0.15318 -0.1318,0.46808 -0.1318,1.69334 0,1.39227 0.0127,1.51786 0.16933,1.67449 0.16376,0.16376 0.28222,0.16933 3.59833,0.16933 3.31612,0 3.43458,-0.006 3.59834,-0.16933 z m 9.04049,0.0375 c 0.18299,-0.12817 0.18817,-0.17518 0.18817,-1.70783 0,-1.3477 -0.0203,-1.59846 -0.14012,-1.73087 -0.13138,-0.14517 -0.35541,-0.15483 -3.59228,-0.15483 -3.02545,0 -3.46861,0.0165 -3.58521,0.13305 -0.11156,0.11155 -0.13305,0.39119 -0.13305,1.73086 0,1.55516 0.005,1.60134 0.18817,1.72962 0.16261,0.1139 0.64309,0.1318 3.53716,0.1318 2.89407,0 3.37455,-0.0179 3.53716,-0.1318 z m 9.12549,0.0116 c 0.15279,-0.11172 0.16435,-0.23429 0.16435,-1.74249 0,-1.5082 -0.0116,-1.63077 -0.16435,-1.74249 -0.13553,-0.0991 -0.76531,-0.12018 -3.59166,-0.12018 -3.07034,0 -3.44345,0.0146 -3.58216,0.14012 -0.13928,0.12605 -0.15483,0.29614 -0.15483,1.69334 0,1.44032 0.0123,1.56551 0.16933,1.72254 0.16374,0.16373 0.28223,0.16933 3.58216,0.16933 2.81383,0 3.44166,-0.0211 3.57716,-0.12017 z m 9.077846,-0.0116 c 0.18299,-0.12817 0.18817,-0.17518 0.18817,-1.70783 0,-1.3477 -0.0203,-1.59846 -0.14012,-1.73087 -0.13135,-0.14513 -0.35446,-0.15483 -3.561567,-0.15483 -2.196579,0 -3.480069,0.0314 -3.585209,0.0876 -0.15327,0.082 -0.16377,0.1929 -0.16377,1.72962 0,1.37981 0.0212,1.66321 0.13305,1.77502 0.11654,0.11654 0.5554,0.13304 3.537159,0.13304 2.943957,0 3.429547,-0.0178 3.592287,-0.1318 z m -63.783545,-6.85942 c 0.119786,-0.11979 0.133048,-1.41584 0.133048,-13.0019 0,-8.708913 -0.02833,-12.92179 -0.08764,-13.032618 -0.08441,-0.157715 -0.2126,-0.163768 -3.468355,-0.163768 -3.255755,0 -3.383948,0.0061 -3.468355,0.163768 -0.122231,0.22839 -0.122231,25.775408 0,26.003798 0.08438,0.15765 0.212085,0.16376 3.422953,0.16376 2.919208,0 3.351905,-0.0166 3.468354,-0.13304 z m 9.090779,0.0314 c 0.14771,-0.1477 0.14771,-25.980418 0,-26.128126 -0.0756,-0.07557 -0.95284,-0.1016 -3.424197,-0.1016 h -3.322599 l -0.131801,0.188173 c -0.201141,0.287169 -0.201141,25.667813 0,25.954983 l 0.131801,0.18817 h 3.322599 c 2.471357,0 3.348627,-0.026 3.424197,-0.1016 z m 9.1138,-0.0866 c 0.11788,-0.16829 0.1318,-1.53919 0.1318,-12.97749 0,-11.438304 -0.0139,-12.809199 -0.1318,-12.977493 l -0.1318,-0.188103 h -3.3226 c -2.47135,0 -3.34863,0.02603 -3.4242,0.1016 -0.1477,0.147708 -0.1477,25.980426 0,26.128126 0.0756,0.0756 0.95285,0.1016 3.4242,0.1016 h 3.3226 z m 9.08954,0.0866 c 0.1477,-0.1477 0.1477,-25.980418 0,-26.128126 -0.0756,-0.07562 -0.96266,-0.1016 -3.46836,-0.1016 -3.24196,0 -3.37,0.0061 -3.4544,0.163768 -0.0593,0.110824 -0.0876,4.316937 -0.0876,13.010828 0,11.83552 0.011,12.85926 0.14012,13.0019 0.13121,0.14498 0.35111,0.15483 3.4544,0.15483 2.46489,0 3.34032,-0.026 3.41588,-0.1016 z m 9.13604,-0.1524 c 0.15711,-0.31061 0.15711,-25.512712 0,-25.823326 l -0.10707,-0.211667 -3.33198,-0.02216 c -2.38913,-0.01589 -3.36472,0.005 -3.44769,0.07387 -0.16125,0.133831 -0.17426,25.975533 -0.0131,26.136643 0.0776,0.0776 0.91656,0.0972 3.44769,0.0804 l 3.34513,-0.0221 z m 9.03584,0.12096 c 0.11979,-0.11979 0.13305,-1.41584 0.13305,-13.0019 0,-8.708913 -0.0283,-12.92179 -0.0876,-13.032618 -0.0844,-0.157715 -0.2126,-0.163768 -3.46835,-0.163768 -3.25576,0 -3.38395,0.0061 -3.46836,0.163768 -0.0593,0.110823 -0.0876,4.314161 -0.0876,13.001898 0,8.687733 0.0283,12.89107 0.0876,13.0019 0.0844,0.15765 0.21209,0.16376 3.42295,0.16376 2.91921,0 3.35191,-0.0166 3.46836,-0.13304 z m 9.09078,0.0314 c 0.14771,-0.1477 0.14771,-25.980418 0,-26.128126 -0.0756,-0.07557 -0.95284,-0.1016 -3.42419,-0.1016 h -3.3226 l -0.13181,0.188173 c -0.11787,0.168294 -0.1318,1.539189 -0.1318,12.977493 0,11.4383 0.0139,12.8092 0.1318,12.97749 l 0.13181,0.18817 h 3.3226 c 2.47135,0 3.34862,-0.026 3.42419,-0.1016 z m 9.113796,-0.0866 c 0.11789,-0.1683 0.1318,-1.54235 0.1318,-13.01083 0,-11.812805 -0.011,-12.834853 -0.14012,-12.977493 -0.1312,-0.144976 -0.35111,-0.154833 -3.454397,-0.154833 -2.464879,0 -3.340309,0.02604 -3.415879,0.1016 -0.1477,0.147708 -0.1477,25.980426 0,26.128126 0.0756,0.0756 0.95285,0.1016 3.424199,0.1016 h 3.322597 z m 9.652,-0.254 c 0.10838,-0.15473 0.1318,-0.48236 0.1318,-1.84383 0,-1.36146 -0.0234,-1.689087 -0.1318,-1.843817 -0.12919,-0.18445 -0.16754,-0.18818 -1.93697,-0.18818 -1.57586,0 -1.81992,0.0178 -1.92136,0.14002 -0.0903,0.10883 -0.1162,0.534517 -0.1162,1.911817 0,1.65618 0.0107,1.77966 0.16435,1.89199 0.12944,0.0947 0.53756,0.12017 1.92136,0.12017 1.71968,0 1.75982,-0.004 1.88882,-0.18817 z m 0,-7.19666 c 0.19447,-0.27765 0.19447,-3.41002 0,-3.68766 -0.12919,-0.18445 -0.16754,-0.18817 -1.93697,-0.18817 -1.57586,0 -1.81992,0.0178 -1.92136,0.14001 -0.0902,0.10873 -0.1162,0.5315 -0.1162,1.89199 0,1.36048 0.026,1.78326 0.1162,1.89199 0.10144,0.12222 0.3455,0.14001 1.92136,0.14001 1.76943,0 1.80778,-0.004 1.93697,-0.18817 z m 0,-7.196669 c 0.19447,-0.277642 0.19447,-3.410012 0,-3.687655 -0.129,-0.184173 -0.16914,-0.188172 -1.88882,-0.188172 -1.3838,0 -1.79192,0.02553 -1.92136,0.120175 -0.15362,0.112332 -0.16435,0.235804 -0.16435,1.891986 0,1.377301 0.0259,1.802988 0.1162,1.911826 0.10144,0.122227 0.3455,0.140013 1.92136,0.140013 1.76943,0 1.80778,-0.0037 1.93697,-0.188173 z m 0,-7.196666 c 0.1085,-0.154911 0.1318,-0.484149 0.1318,-1.862667 0,-1.561605 -0.0114,-1.685909 -0.16933,-1.843827 -0.15822,-0.158216 -0.28222,-0.169334 -1.88882,-0.169334 -1.3503,0 -1.75477,0.02577 -1.88383,0.120027 -0.15167,0.110766 -0.16637,0.251789 -0.19052,1.827562 -0.0221,1.445089 -0.006,1.738956 0.10779,1.911973 l 0.13395,0.204438 h 1.81358 c 1.77812,0 1.81616,-0.0037 1.94538,-0.188172 z M 34.916218,51.733727 c 0.06269,-0.06269 0.04983,-0.188116 -0.04309,-0.420354 L 34.740685,50.982368 H 33.896203 33.05172 l -0.132441,0.331005 c -0.138159,0.345292 -0.109686,0.428461 0.17259,0.504119 0.287423,0.07704 1.729772,0.01081 1.824349,-0.08376 z m 9.064216,-0.0047 c 0.07922,-0.07933 0.07472,-0.172894 -0.02033,-0.422634 l -0.122075,-0.320743 -0.829446,-6.78e-4 c -0.907914,-7.62e-4 -0.965058,0.02628 -1.040724,0.492559 -0.0425,0.261915 -0.02465,0.301593 0.152263,0.338439 0.388457,0.0809 1.756552,0.01698 1.86031,-0.08692 z m 8.86511,0.09239 c 0.3285,-0.0657 0.36903,-0.176622 0.19649,-0.537736 l -0.13816,-0.289172 -0.83689,-0.0094 -0.83688,-0.0094 -0.11562,0.276709 c -0.15667,0.374968 -0.14693,0.444351 0.0749,0.53351 0.2208,0.08875 1.27671,0.111365 1.65617,0.03547 z m 9.34029,-0.0946 c 0.072,-0.07196 0.0638,-0.177805 -0.0323,-0.41873 l -0.1286,-0.322428 -0.82595,-6.77e-4 c -0.73757,-5.93e-4 -0.83802,0.01772 -0.93879,0.171514 -0.20398,0.311306 -0.18304,0.570337 0.052,0.643455 0.3108,0.09668 1.7604,0.04012 1.87363,-0.07311 z m 8.86845,0.09352 c 0.2968,-0.05936 0.34336,-0.259689 0.144,-0.619636 -0.10904,-0.196883 -0.15456,-0.207118 -0.9415,-0.211667 l -0.82691,-0.0048 -0.11384,0.272447 c -0.15478,0.370453 -0.14466,0.440283 0.0767,0.529248 0.22226,0.08934 1.27764,0.111177 1.66159,0.03439 z m 9.32794,-0.08656 c 0.0627,-0.06269 0.0498,-0.188116 -0.0431,-0.420354 l -0.13245,-0.331005 h -0.84448 -0.84448 l -0.13244,0.331005 c -0.13816,0.345292 -0.10969,0.428461 0.17259,0.504119 0.28742,0.07704 1.72977,0.01081 1.82435,-0.08376 z m 9.06421,-0.0047 c 0.0792,-0.07933 0.0751,-0.17198 -0.0188,-0.418502 l -0.1205,-0.316612 -0.83103,-0.0048 c -0.91048,-0.0053 -0.96642,0.02092 -1.04229,0.488425 -0.0425,0.261916 -0.0246,0.301594 0.15227,0.33844 0.38845,0.0809 1.75655,0.01698 1.86031,-0.08692 z m 9.139689,0.0042 c 0.066,-0.066 0.0485,-0.182827 -0.0622,-0.415303 l -0.15404,-0.323468 -0.83689,-0.0094 -0.83688,-0.0094 -0.115619,0.276709 c -0.15655,0.374687 -0.14697,0.443548 0.0749,0.538289 0.25062,0.107023 1.81275,0.06048 1.93075,-0.05752 z m -63.208254,-1.52766 c 2.689166,-1.380908 2.409989,-5.237669 -0.44885,-6.200743 -1.611579,-0.542901 -3.352577,0.225682 -4.086934,1.804222 -0.74391,1.599076 -0.076,3.55628 1.48392,4.348389 0.652423,0.331293 0.785734,0.357394 1.697198,0.332302 0.754195,-0.02076 0.902149,-0.0518 1.354666,-0.28417 z m 9.059315,0.02031 c 0.67316,-0.329348 1.25898,-0.930616 1.59233,-1.634334 0.24835,-0.524255 0.27026,-0.639644 0.26923,-1.417384 -9.8e-4,-0.739609 -0.0298,-0.908253 -0.22825,-1.333723 -0.27829,-0.596767 -0.94387,-1.316695 -1.484208,-1.605406 -1.683412,-0.89947 -3.803419,-0.206755 -4.650819,1.519661 -0.218914,0.445996 -0.239597,0.568534 -0.239597,1.419468 0,0.829338 0.02443,0.983444 0.223111,1.407161 0.381961,0.814608 0.978098,1.378538 1.842117,1.742591 0.412074,0.173628 0.586721,0.196705 1.3225,0.174752 0.735298,-0.02194 0.914818,-0.05812 1.353586,-0.272786 z m 9.11288,-0.02415 c 0.67082,-0.330552 1.2656,-0.936569 1.58223,-1.612109 0.20301,-0.433136 0.22691,-0.582228 0.22691,-1.415463 0,-0.859156 -0.0193,-0.970618 -0.24889,-1.438253 -0.33162,-0.675428 -0.93228,-1.26031 -1.63573,-1.592774 -0.51836,-0.244988 -0.6445,-0.269541 -1.37505,-0.267661 -1.11173,0.0029 -1.62734,0.211543 -2.37841,0.962612 -0.75174,0.751743 -0.9601,1.267035 -0.9617,2.37841 -0.001,0.69537 0.0295,0.870117 0.2249,1.289935 0.3004,0.645313 0.59502,1.018695 1.09119,1.382919 0.66421,0.487573 1.17301,0.634302 2.11099,0.60877 0.71413,-0.01944 0.8705,-0.05343 1.36356,-0.296386 z m 8.75602,0.153099 c 0.65557,-0.230416 1.24279,-0.690812 1.64025,-1.286017 0.38814,-0.581243 0.50571,-0.918556 0.57231,-1.641918 0.12623,-1.371143 -0.78352,-2.844326 -2.0727,-3.356371 -0.37972,-0.150817 -0.65533,-0.192444 -1.29146,-0.195051 -0.76789,-0.0031 -0.84136,0.01282 -1.45497,0.316078 -2.01512,0.995926 -2.51918,3.575978 -1.02233,5.232819 0.39982,0.442546 0.70711,0.656153 1.28725,0.8948 0.62553,0.257318 1.66591,0.273162 2.34165,0.03566 z m 9.45845,-0.158837 c 0.65817,-0.324019 1.2531,-0.93656 1.57811,-1.624834 0.19322,-0.409178 0.21989,-0.573509 0.21989,-1.354666 0,-0.817476 -0.021,-0.933297 -0.26092,-1.439576 -0.33426,-0.7053 -0.93853,-1.309578 -1.64383,-1.643831 -0.50117,-0.237513 -0.62655,-0.260886 -1.39725,-0.260473 -0.74241,4.24e-4 -0.90693,0.02864 -1.33614,0.22936 -0.6912,0.32324 -1.42367,1.04849 -1.71653,1.699604 -0.60988,1.355908 -0.21969,3.063191 0.90848,3.975178 0.73967,0.597927 1.21266,0.746847 2.27787,0.717175 0.71885,-0.02002 0.87457,-0.05388 1.37032,-0.297937 z m 9.0855,0.0065 c 1.32741,-0.681428 2.07303,-2.151159 1.81452,-3.576717 -0.59127,-3.260693 -4.95846,-3.821816 -6.35647,-0.816719 -0.74424,1.599789 -0.0783,3.546176 1.48779,4.348449 0.64569,0.330772 0.78116,0.357353 1.69333,0.332241 0.75648,-0.02083 0.90144,-0.05142 1.36083,-0.287254 z m 9.05315,0.02339 c 0.67316,-0.329347 1.25898,-0.930616 1.59234,-1.634334 0.24834,-0.524254 0.27026,-0.639644 0.26922,-1.417384 -9.8e-4,-0.739609 -0.0298,-0.908253 -0.22825,-1.333723 -0.27829,-0.596767 -0.94386,-1.316694 -1.48421,-1.605406 -1.68341,-0.89947 -3.80342,-0.206754 -4.65081,1.519662 -0.21892,0.445996 -0.2396,0.568533 -0.2396,1.419467 0,0.829338 0.0244,0.983444 0.22311,1.407161 0.38196,0.814609 0.9781,1.378538 1.84212,1.742592 0.41207,0.173627 0.58672,0.196704 1.3225,0.174752 0.73529,-0.02194 0.91481,-0.05812 1.35358,-0.272787 z m 9.112879,-0.02415 c 2.530687,-1.247014 2.485827,-4.84808 -0.0755,-6.058599 -0.51837,-0.244987 -0.6445,-0.269541 -1.37505,-0.267661 -1.111729,0.0029 -1.627339,0.211543 -2.378409,0.962613 -0.75175,0.751742 -0.9601,1.267034 -0.96171,2.378409 -10e-4,0.69537 0.0295,0.870117 0.2249,1.289935 0.3004,0.645314 0.59502,1.018695 1.09119,1.382919 0.66421,0.487574 1.173009,0.634303 2.110989,0.60877 0.71413,-0.01944 0.8705,-0.05343 1.36356,-0.296386 z m 8.884367,-0.956217 c 0.15421,-0.08253 0.16377,-0.195175 0.16377,-1.9304 0,-1.320365 -0.0288,-1.871556 -0.1016,-1.944354 -0.0726,-0.07256 -0.60906,-0.1016 -1.87717,-0.1016 -1.53336,0 -1.79668,0.01911 -1.9304,0.140122 -0.14022,0.1269 -0.15483,0.300827 -0.15483,1.843823 0,1.404956 0.0231,1.736702 0.1318,1.891878 0.12892,0.184051 0.16983,0.188172 1.86823,0.188172 1.03506,0 1.80259,-0.0354 1.9002,-0.08764 z m 5.34294,-0.05248 c 0.14053,-0.127182 0.15483,-0.302552 0.15483,-1.898952 0,-1.486048 -0.0206,-1.779465 -0.13304,-1.891878 -0.1126,-0.112595 -0.40934,-0.133047 -1.9304,-0.133047 -1.28506,0 -1.82632,0.02896 -1.89896,0.1016 -0.0726,0.07264 -0.1016,0.6139 -0.1016,1.898952 0,1.521068 0.0205,1.817804 0.13305,1.9304 0.20396,0.203957 3.54986,0.197689 3.77612,-0.0071 z M 34.921103,39.621509 c 0.07176,-0.07176 0.05598,-0.177467 -0.06221,-0.41667 l -0.15836,-0.320519 -0.823137,-0.0078 -0.823136,-0.0078 -0.129364,0.323311 c -0.163451,0.408507 -0.165168,0.394717 0.06114,0.491357 0.257081,0.109783 1.813174,0.06005 1.935067,-0.06184 z m 9.059331,1.7e-4 c 0.07922,-0.07934 0.07507,-0.17198 -0.01875,-0.418502 l -0.120504,-0.316612 -0.831025,-0.0048 c -0.910481,-0.0053 -0.966425,0.02092 -1.04229,0.488426 -0.0425,0.261916 -0.02465,0.301594 0.152263,0.33844 0.388457,0.0809 1.756552,0.01698 1.86031,-0.08692 z m 8.86511,0.09239 c 0.32856,-0.06571 0.36899,-0.176521 0.19649,-0.538512 l -0.13816,-0.289947 -0.83321,-0.0044 -0.83322,-0.0044 -0.11928,0.285506 c -0.15863,0.37965 -0.15218,0.426399 0.0712,0.516189 0.22079,0.08875 1.2767,0.111365 1.65617,0.03547 z m 9.33654,-0.0907 c 0.077,-0.07708 0.0708,-0.17365 -0.0269,-0.418544 l -0.12697,-0.318342 -0.82759,-0.0048 c -0.74172,-0.0043 -0.83929,0.01308 -0.94042,0.167429 -0.20405,0.311423 -0.18308,0.57042 0.052,0.642576 0.3249,0.09972 1.75422,0.04749 1.86987,-0.06833 z m 8.8722,0.08959 c 0.2968,-0.05936 0.34336,-0.25969 0.144,-0.619637 -0.10904,-0.196883 -0.15456,-0.207118 -0.9415,-0.211666 l -0.82691,-0.0048 -0.11384,0.272447 c -0.16037,0.383836 -0.14236,0.514613 0.0767,0.556801 0.30968,0.05965 1.37561,0.06403 1.66159,0.0068 z m 9.33282,-0.09145 c 0.0718,-0.07176 0.056,-0.177467 -0.0622,-0.41667 l -0.15836,-0.320519 -0.82313,-0.0078 -0.82314,-0.0078 -0.12936,0.323311 c -0.16346,0.408507 -0.16517,0.394717 0.0611,0.491357 0.25708,0.109783 1.81317,0.06005 1.93506,-0.06184 z m 9.05933,1.7e-4 c 0.0792,-0.07934 0.0751,-0.17198 -0.0188,-0.418502 l -0.1205,-0.316612 -0.83103,-0.0048 c -0.91048,-0.0053 -0.96642,0.02092 -1.04229,0.488426 -0.0425,0.261916 -0.0246,0.301594 0.15227,0.33844 0.38845,0.0809 1.75655,0.01698 1.86031,-0.08692 z m 9.139689,0.0042 c 0.066,-0.066 0.0485,-0.183046 -0.0622,-0.416078 l -0.15404,-0.324246 -0.83867,-0.0043 -0.83867,-0.0043 -0.113829,0.272447 c -0.15466,0.37017 -0.14471,0.439491 0.0767,0.534027 0.25062,0.107023 1.81274,0.06048 1.93075,-0.05752 z M 35.384033,38.0952 c 1.33848,-0.687112 2.073832,-2.141602 1.813287,-3.586592 -0.275092,-1.525663 -1.517701,-2.64361 -3.068792,-2.760919 -3.055452,-0.231083 -4.784019,3.474785 -2.645928,5.672592 0.73444,0.754953 1.384184,1.001873 2.540603,0.965497 0.752687,-0.02368 0.903738,-0.05593 1.36083,-0.290578 z m 9.010837,0.04956 c 0.718134,-0.335972 1.218604,-0.833564 1.585604,-1.576488 0.30547,-0.618351 0.3194,-0.683718 0.3194,-1.499166 0,-0.7918 -0.0197,-0.892709 -0.27667,-1.414529 -0.35198,-0.714863 -1.08883,-1.416717 -1.773573,-1.689334 -0.38847,-0.154661 -0.656111,-0.195416 -1.294095,-0.197057 -0.731385,-0.0019 -0.856359,0.02252 -1.377972,0.269029 -0.694196,0.328073 -1.308396,0.93034 -1.642097,1.610192 -0.218914,0.445996 -0.239597,0.568533 -0.239597,1.419468 0,0.829337 0.02443,0.983443 0.223111,1.40716 0.381961,0.814609 0.978098,1.378538 1.842117,1.742592 0.413226,0.174113 0.584528,0.196541 1.321438,0.173018 0.695888,-0.02221 0.929596,-0.06582 1.312334,-0.244885 z m 9.155194,-0.05031 c 0.67082,-0.330551 1.2656,-0.936569 1.58223,-1.612108 0.20301,-0.433136 0.22691,-0.582228 0.22691,-1.415463 0,-0.859157 -0.0193,-0.970619 -0.24889,-1.438253 -0.33162,-0.675429 -0.93228,-1.260311 -1.63573,-1.592775 -0.51836,-0.244987 -0.6445,-0.269541 -1.37505,-0.267661 -1.11173,0.0029 -1.62734,0.211543 -2.37841,0.962613 -0.75174,0.751742 -0.9601,1.267034 -0.9617,2.378409 -0.001,0.698722 0.029,0.869211 0.22879,1.298439 0.29878,0.64202 0.66308,1.095172 1.15138,1.432222 0.6484,0.447563 1.12748,0.57658 2.04691,0.551238 0.7138,-0.01967 0.87072,-0.05381 1.36356,-0.296661 z m 9.07061,0.03018 c 1.88856,-0.909002 2.5086,-3.35975 1.26578,-5.003064 -1.02735,-1.358415 -2.71192,-1.766297 -4.21888,-1.021514 -1.68234,0.831457 -2.33251,2.828578 -1.47431,4.528652 0.36853,0.730049 1.2139,1.439783 2.03427,1.707885 0.11642,0.03804 0.59267,0.05878 1.05834,0.04608 0.72323,-0.01973 0.91783,-0.05734 1.3348,-0.258039 z m 9.13948,-0.03351 c 0.66276,-0.326574 1.2567,-0.937315 1.58249,-1.627245 0.19322,-0.409177 0.21989,-0.573509 0.21989,-1.354666 0,-0.817475 -0.021,-0.933297 -0.26092,-1.439576 -0.82767,-1.746438 -2.93382,-2.447908 -4.62949,-1.541887 -0.54277,0.290006 -1.20805,1.011254 -1.4793,1.60373 -0.59722,1.304511 -0.1909,3.037128 0.92352,3.937995 0.73469,0.593898 1.2099,0.744121 2.27349,0.718691 0.7194,-0.0172 0.8676,-0.04933 1.37032,-0.297042 z m 9.08988,0.0041 c 1.33848,-0.687112 2.07383,-2.141601 1.81329,-3.586591 -0.27509,-1.525664 -1.5177,-2.64361 -3.06879,-2.760919 -3.05546,-0.231083 -4.78402,3.474784 -2.64593,5.672592 0.73444,0.754952 1.38418,1.001872 2.5406,0.965497 0.75269,-0.02368 0.90374,-0.05593 1.36083,-0.290579 z m 9.02216,0.03856 c 0.7412,-0.362636 1.21073,-0.829541 1.57429,-1.565485 0.30546,-0.618351 0.31939,-0.683718 0.31939,-1.499165 0,-0.7918 -0.0197,-0.892709 -0.27667,-1.414529 -0.35198,-0.714864 -1.08883,-1.416717 -1.77357,-1.689334 -0.38847,-0.154661 -0.65611,-0.195417 -1.2941,-0.197057 -0.73138,-0.0019 -0.85635,0.02252 -1.37797,0.269029 -0.69419,0.328072 -1.30839,0.930339 -1.64209,1.610191 -0.21892,0.445996 -0.2396,0.568533 -0.2396,1.419468 0,0.829338 0.0244,0.983444 0.22311,1.407161 0.38196,0.814608 0.9781,1.378537 1.84212,1.742591 0.41207,0.173628 0.58672,0.196705 1.3225,0.174752 0.72145,-0.02153 0.91846,-0.0599 1.32259,-0.257622 z m 9.143869,-0.03931 c 2.530687,-1.247014 2.485827,-4.84808 -0.0755,-6.058599 -0.51837,-0.244988 -0.6445,-0.269541 -1.37505,-0.267661 -1.111729,0.0029 -1.627339,0.211543 -2.378409,0.962612 -0.75175,0.751743 -0.9601,1.267035 -0.96171,2.378409 -10e-4,0.695371 0.0295,0.870118 0.2249,1.289936 0.30287,0.650621 0.59543,1.018998 1.10822,1.395415 0.65981,0.484349 1.145419,0.622693 2.093959,0.596549 0.7138,-0.01967 0.87073,-0.05382 1.36356,-0.296661 z m 8.884367,-0.956217 c 0.15421,-0.08253 0.16377,-0.195176 0.16377,-1.9304 0,-1.320365 -0.0288,-1.871557 -0.1016,-1.944355 -0.0726,-0.07256 -0.60906,-0.1016 -1.87717,-0.1016 -1.53336,0 -1.79668,0.01911 -1.9304,0.140123 -0.14022,0.126901 -0.15483,0.300829 -0.15483,1.843825 0,1.404956 0.0231,1.736702 0.1318,1.891877 0.12892,0.184051 0.16983,0.188172 1.86823,0.188172 1.03506,0 1.80259,-0.0354 1.9002,-0.08764 z m 5.34294,-0.05248 c 0.14053,-0.127183 0.15483,-0.302553 0.15483,-1.898953 0,-1.486047 -0.0206,-1.779464 -0.13304,-1.891877 -0.1126,-0.112596 -0.40934,-0.133048 -1.9304,-0.133048 -1.28506,0 -1.82632,0.02896 -1.89896,0.1016 -0.0726,0.07264 -0.1016,0.6139 -0.1016,1.898952 0,1.521068 0.0205,1.817805 0.13305,1.9304 0.20396,0.203957 3.54986,0.197689 3.77612,-0.0071 z m -78.325034,-9.56864 c 0.07546,-0.07559 0.06136,-0.174385 -0.05944,-0.416582 l -0.15836,-0.317489 -0.824639,-0.0071 -0.82464,-0.0071 -0.12786,0.319556 c -0.161781,0.40433 -0.163468,0.391217 0.06264,0.486688 0.265236,0.111992 1.80886,0.06567 1.9323,-0.05799 z m 9.062098,-0.0028 c 0.07922,-0.07933 0.07507,-0.17198 -0.01875,-0.418502 l -0.120504,-0.316612 -0.831025,-0.0048 c -0.910481,-0.0053 -0.966425,0.02092 -1.04229,0.488426 -0.0425,0.261915 -0.02465,0.301593 0.152263,0.338439 0.388457,0.0809 1.756552,0.01698 1.86031,-0.08692 z m 8.87052,0.0913 c 0.29392,-0.05878 0.34315,-0.252565 0.15741,-0.619577 -0.10003,-0.197663 -0.14158,-0.207041 -0.93779,-0.211667 l -0.83313,-0.0048 -0.11928,0.285506 c -0.15863,0.37965 -0.15218,0.4264 0.0712,0.516189 0.22225,0.08934 1.27763,0.111178 1.66158,0.03439 z m 9.33116,-0.08962 c 0.0769,-0.07707 0.0705,-0.174204 -0.0278,-0.42071 l -0.12784,-0.320509 -0.83596,0.0044 -0.83597,0.0044 -0.1441,0.289301 c -0.18857,0.37859 -0.18638,0.407339 0.0383,0.502195 0.26704,0.112752 1.8089,0.06563 1.93341,-0.05909 z m 8.87217,0.08962 c 0.2968,-0.05936 0.34336,-0.25969 0.144,-0.619636 -0.10904,-0.196883 -0.15456,-0.207119 -0.9415,-0.211667 l -0.82691,-0.0048 -0.11384,0.272447 c -0.16037,0.383837 -0.14236,0.514614 0.0767,0.556801 0.30968,0.05965 1.37561,0.06403 1.66159,0.0068 z m 9.33005,-0.08851 c 0.0755,-0.07559 0.0614,-0.174385 -0.0594,-0.416582 l -0.15835,-0.317489 -0.82464,-0.0071 -0.82464,-0.0071 -0.12786,0.319556 c -0.16178,0.40433 -0.16347,0.391217 0.0626,0.486688 0.26523,0.111992 1.80886,0.06567 1.9323,-0.05799 z m 9.0621,-0.0028 c 0.0792,-0.07933 0.0751,-0.17198 -0.0188,-0.418502 l -0.1205,-0.316612 -0.83103,-0.0048 c -0.91048,-0.0053 -0.96642,0.02092 -1.04229,0.488426 -0.0425,0.261915 -0.0246,0.301593 0.15227,0.338439 0.38845,0.0809 1.75655,0.01698 1.86031,-0.08692 z m 8.965769,0.06666 c 0.22643,-0.06492 0.2401,-0.209374 0.0563,-0.595315 -0.0946,-0.19862 -0.13322,-0.207398 -0.93188,-0.211667 l -0.83321,-0.0045 -0.119289,0.285506 c -0.15862,0.37965 -0.15217,0.426399 0.0712,0.516189 0.2246,0.09028 1.4522,0.09708 1.75684,0.0097 z M 35.362504,26.007722 c 0.647182,-0.321863 1.422971,-1.146233 1.648128,-1.751336 0.495577,-1.331849 0.17479,-2.815088 -0.803946,-3.717257 -1.685437,-1.553581 -4.315126,-1.061048 -5.333204,0.998895 -0.296737,0.600406 -0.315832,0.68678 -0.312043,1.41153 0.0046,0.881104 0.130471,1.298914 0.59623,1.979213 0.360599,0.526699 0.952749,0.983565 1.572007,1.212862 0.358594,0.13278 0.614098,0.160093 1.293527,0.138279 0.732006,-0.0235 0.913382,-0.06036 1.339301,-0.272186 z m 9.032366,0.02971 c 0.718134,-0.335971 1.218604,-0.833564 1.585604,-1.576488 0.30547,-0.618351 0.3194,-0.683718 0.3194,-1.499165 0,-0.7918 -0.0197,-0.892709 -0.27667,-1.41453 -0.35198,-0.714863 -1.08883,-1.416716 -1.773573,-1.689333 -0.38847,-0.154662 -0.656111,-0.195416 -1.294095,-0.197058 -0.731385,-0.0019 -0.856359,0.02252 -1.377972,0.269029 -0.694196,0.328073 -1.308396,0.93034 -1.642097,1.610192 -0.218914,0.445996 -0.239597,0.568533 -0.239597,1.419468 0,0.829338 0.02443,0.983444 0.223111,1.407161 0.381961,0.814608 0.978098,1.378537 1.842117,1.742591 0.413226,0.174113 0.584528,0.196541 1.321438,0.173018 0.695888,-0.02221 0.929596,-0.06582 1.312334,-0.244885 z m 9.155194,-0.05031 c 0.67082,-0.330551 1.2656,-0.936569 1.58223,-1.612108 0.20301,-0.433136 0.22691,-0.582228 0.22691,-1.415463 0,-0.851165 -0.0206,-0.973369 -0.2398,-1.419673 -0.33395,-0.68008 -0.94772,-1.281925 -1.64189,-1.609987 -0.52162,-0.246512 -0.64659,-0.270911 -1.37798,-0.269029 -1.11173,0.0029 -1.62734,0.211544 -2.37841,0.962613 -0.75174,0.751743 -0.9601,1.267035 -0.9617,2.378409 -0.001,0.698722 0.029,0.869211 0.22879,1.298439 0.29878,0.64202 0.66308,1.095172 1.15138,1.432223 0.6484,0.447562 1.12748,0.57658 2.04691,0.551237 0.7138,-0.01967 0.87072,-0.05381 1.36356,-0.296661 z m 9.07187,0.03324 c 2.2927,-1.121713 2.5732,-4.194512 0.52458,-5.74663 -0.60753,-0.46029 -1.12265,-0.616381 -2.02998,-0.615116 -0.67899,9.47e-4 -0.82417,0.0304 -1.33271,0.270352 -2.12891,1.004515 -2.63689,3.710436 -1.01131,5.387066 0.3695,0.381099 0.95746,0.750061 1.45502,0.913064 0.11642,0.03814 0.59315,0.06041 1.0594,0.0495 0.73414,-0.01718 0.91302,-0.05178 1.335,-0.25824 z m 9.13827,-0.03656 c 0.6627,-0.326579 1.25667,-0.937363 1.58244,-1.627245 0.19322,-0.409178 0.21989,-0.573509 0.21989,-1.354667 0,-0.818809 -0.0207,-0.932451 -0.262,-1.439333 -0.77122,-1.619926 -2.5969,-2.341443 -4.29176,-1.696121 -0.68169,0.259558 -1.41685,0.956305 -1.77357,1.680906 -0.25665,0.52133 -0.27667,0.623369 -0.27667,1.410435 0,0.622306 0.0406,0.947485 0.15219,1.220026 0.35899,0.876546 1.03684,1.563598 1.89917,1.924944 0.42508,0.178124 0.59909,0.20177 1.33766,0.181784 0.7636,-0.02066 0.90572,-0.05092 1.41265,-0.300729 z m 9.0683,0.02393 c 0.64718,-0.321863 1.42297,-1.146233 1.64813,-1.751336 0.23505,-0.631683 0.30006,-1.235068 0.19457,-1.805716 -0.20797,-1.125062 -0.83289,-1.971634 -1.8117,-2.454316 -1.72692,-0.851604 -3.66368,-0.191025 -4.52002,1.54167 -0.29674,0.600406 -0.31583,0.68678 -0.31204,1.41153 0.006,1.168804 0.42253,2.039758 1.29242,2.703149 0.67476,0.514579 1.17476,0.659139 2.16934,0.627205 0.73201,-0.0235 0.91338,-0.06036 1.3393,-0.272186 z m 9.03237,0.02971 c 0.71813,-0.335971 1.2186,-0.833564 1.58561,-1.576488 0.30546,-0.618351 0.31939,-0.683718 0.31939,-1.499165 0,-0.7918 -0.0197,-0.892709 -0.27667,-1.41453 -0.35198,-0.714863 -1.08883,-1.416716 -1.77357,-1.689333 -0.38847,-0.154662 -0.65611,-0.195416 -1.2941,-0.197058 -0.73138,-0.0019 -0.85635,0.02252 -1.37797,0.269029 -0.69213,0.327097 -1.2758,0.899287 -1.62769,1.595666 -0.23637,0.467759 -0.254,0.567326 -0.254,1.433994 0,0.829338 0.0244,0.983444 0.22311,1.407161 0.38196,0.814608 0.9781,1.378537 1.84212,1.742591 0.41322,0.174113 0.58452,0.196541 1.32143,0.173018 0.69589,-0.02221 0.9296,-0.06582 1.31234,-0.244885 z m 9.206399,-0.06518 c 2.483777,-1.333262 2.411867,-4.84404 -0.12376,-6.042366 -0.52162,-0.246512 -0.64659,-0.270911 -1.37798,-0.269029 -1.111719,0.0029 -1.627339,0.211544 -2.378399,0.962613 -0.75175,0.751743 -0.96011,1.267035 -0.96171,2.378409 -0.001,0.698722 0.029,0.869211 0.22879,1.298439 0.29879,0.64202 0.66308,1.095172 1.15138,1.432223 0.66202,0.456959 1.124489,0.578648 2.086939,0.549134 0.77321,-0.02371 0.89249,-0.05056 1.37474,-0.309423 z m 8.833157,-0.941351 c 0.15421,-0.08253 0.16377,-0.195176 0.16377,-1.9304 0,-1.320365 -0.0288,-1.871557 -0.1016,-1.944355 -0.0726,-0.07256 -0.60906,-0.1016 -1.87717,-0.1016 -1.53336,0 -1.79668,0.01911 -1.9304,0.140122 -0.14022,0.126905 -0.15483,0.300832 -0.15483,1.843828 0,1.404956 0.0231,1.736702 0.1318,1.891877 0.12892,0.184051 0.16983,0.188173 1.86823,0.188173 1.03506,0 1.80259,-0.0354 1.9002,-0.08765 z m 5.34294,-0.05248 c 0.14041,-0.127074 0.15483,-0.301872 0.15483,-1.877166 0,-1.497523 -0.0193,-1.758394 -0.14012,-1.891878 -0.12733,-0.1407 -0.30353,-0.154833 -1.9304,-0.154833 -1.27955,0 -1.81926,0.02898 -1.89188,0.1016 -0.0726,0.07264 -0.1016,0.613901 -0.1016,1.898952 0,1.521068 0.0205,1.817804 0.13305,1.9304 0.20396,0.203957 3.54986,0.197689 3.77612,-0.0071 z"
       id="path306" /><text
       xml:space="preserve"
       style="font-style:normal;font-variant:normal;font-weight:normal;font-stretch:normal;font-size:2.11667px;font-family:'Latin Modern Sans';-inkscape-font-specification:'Latin Modern Sans';fill:#000000;fill-opacity:1;stroke:none;stroke-width:0.185;stroke-dasharray:none;stroke-opacity:1"
       x="32.157749"
       y="23.782812"
       id="text1012"><tspan
         sodipodi:role="line"
         id="tspan1010"
         style="font-size:2.11667px;fill:#000000;fill-opacity:1;stroke:none;stroke-width:0.185;-inkscape-font-specification:'Latin Modern Sans';font-family:'Latin Modern Sans';font-weight:normal;font-style:normal;font-stretch:normal;font-variant:normal"
         x="32.157749"
         y="23.782812">mix</tspan></text><text
       xml:space="preserve"
       style="font-style:normal;font-variant:normal;font-weight:normal;font-stretch:normal;font-size:2.11667px;font-family:'Latin Modern Sans';-inkscape-font-specification:'Latin Modern Sans';fill:#000000;fill-opacity:1;stroke:none;stroke-width:0.185;stroke-dasharray:none;stroke-opacity:1"
       x="41.590157"
       y="23.748842"
       id="text1066"><tspan
         sodipodi:role="line"
         id="tspan1064"
         style="font-size:2.11667px;fill:#000000;fill-opacity:1;stroke:none;stroke-width:0.185;-inkscape-font-specification:'Latin Modern Sans';font-family:'Latin Modern Sans';font-weight:normal;font-style:normal;font-stretch:normal;font-variant:normal"
         x="41.590157"
         y="23.748842">mix</tspan></text><text
       xml:space="preserve"
       style="font-style:normal;font-variant:normal;font-weight:normal;font-stretch:normal;font-size:2.11667px;font-family:'Latin Modern Sans';-inkscape-font-specification:'Latin Modern Sans';fill:#000000;fill-opacity:1;stroke:none;stroke-width:0.185;stroke-dasharray:none;stroke-opacity:1"
       x="50.356537"
       y="23.89879"
       id="text1070"><tspan
         sodipodi:role="line"
         id="tspan1068"
         style="font-size:2.11667px;fill:#000000;fill-opacity:1;stroke:none;stroke-width:0.185;-inkscape-font-specification:'Latin Modern Sans';font-family:'Latin Modern Sans';font-weight:normal;font-style:normal;font-stretch:normal;font-variant:normal"
         x="50.356537"
         y="23.89879">mix</tspan></text><text
       xml:space="preserve"
       style="font-style:normal;font-variant:normal;font-weight:normal;font-stretch:normal;font-size:2.11667px;font-family:'Latin Modern Sans';-inkscape-font-specification:'Latin Modern Sans';fill:#000000;fill-opacity:1;stroke:none;stroke-width:0.185;stroke-dasharray:none;stroke-opacity:1"
       x="59.50581"
       y="23.89879"
       id="text1078"><tspan
         sodipodi:role="line"
         id="tspan1076"
         style="font-style:normal;font-variant:normal;font-weight:normal;font-stretch:normal;font-size:2.11667px;font-family:'Latin Modern Sans';-inkscape-font-specification:'Latin Modern Sans';fill:#000000;fill-opacity:1;stroke:none;stroke-width:0.185"
         x="59.50581"
         y="23.89879">mix</tspan></text><text
       xml:space="preserve"
       style="font-style:normal;font-variant:normal;font-weight:normal;font-stretch:normal;font-size:2.11667px;font-family:'Latin Modern Sans';-inkscape-font-specification:'Latin Modern Sans';fill:#000000;fill-opacity:1;stroke:none;stroke-width:0.185;stroke-dasharray:none;stroke-opacity:1"
       x="33.856777"
       y="34.302952"
       id="text1082"><tspan
         sodipodi:role="line"
         id="tspan1080"
         style="font-size:2.11667px;text-align:center;text-anchor:middle;fill:#000000;fill-opacity:1;stroke:none;stroke-width:0.185;-inkscape-font-specification:'Latin Modern Sans';font-family:'Latin Modern Sans';font-weight:normal;font-style:normal;font-stretch:normal;font-variant:normal"
         x="33.856777"
         y="34.302952">freq</tspan><tspan
         sodipodi:role="line"
         style="font-size:2.11667px;text-align:center;text-anchor:middle;fill:#000000;fill-opacity:1;stroke:none;stroke-width:0.185;-inkscape-font-specification:'Latin Modern Sans';font-family:'Latin Modern Sans';font-weight:normal;font-style:normal;font-stretch:normal;font-variant:normal"
         x="33.856777"
         y="36.948784"
         id="tspan1084">scale</tspan></text><rect
       style="fill:none;fill-opacity:1;stroke:#000000;stroke-width:0.185;stroke-dasharray:none;stroke-opacity:1"
       id="rect1138"
       width="8.8199396"
       height="34.116035"
       x="29.523491"
       y="18.616201" /><rect
       style="fill:none;fill-opacity:1;stroke:#000000;stroke-width:0.185;stroke-dasharray:none;stroke-opacity:1"
       id="rect1140"
       width="8.8199396"
       height="34.116035"
       x="38.519333"
       y="18.616201" /><rect
       style="fill:none;fill-opacity:1;stroke:#000000;stroke-width:0.185;stroke-dasharray:none;stroke-opacity:1"
       id="rect1142"
       width="8.8199396"
       height="34.116035"
       x="47.515175"
       y="18.616201" /><rect
       style="fill:none;fill-opacity:1;stroke:#000000;stroke-width:0.185;stroke-dasharray:none;stroke-opacity:1"
       id="rect1144"
       width="8.8199396"
       height="34.116035"
       x="56.511017"
       y="18.616201" /><text
       xml:space="preserve"
       style="font-style:normal;font-variant:normal;font-weight:normal;font-stretch:normal;font-size:2.11667px;font-family:'Latin Modern Sans';-inkscape-font-specification:'Latin Modern Sans';fill:#000000;fill-opacity:1;stroke:none;stroke-width:0.185;stroke-dasharray:none;stroke-opacity:1"
       x="32.157749"
       y="17.960123"
       id="text1148"><tspan
         sodipodi:role="line"
         id="tspan1146"
         style="font-size:2.11667px;fill:#000000;fill-opacity:1;stroke:none;stroke-width:0.185;-inkscape-font-specification:'Latin Modern Sans';font-family:'Latin Modern Sans';font-weight:normal;font-style:normal;font-stretch:normal;font-variant:normal"
         x="32.157749"
         y="17.960123">fx1</tspan></text><text
       xml:space="preserve"
       style="font-style:normal;font-variant:normal;font-weight:normal;font-stretch:normal;font-size:2.11667px;font-family:'Latin Modern Sans';-inkscape-font-specification:'Latin Modern Sans';fill:#000000;fill-opacity:1;stroke:none;stroke-width:0.185;stroke-dasharray:none;stroke-opacity:1"
       x="41.260826"
       y="17.878113"
       id="text1152"><tspan
         sodipodi:role="line"
         id="tspan1150"
         style="font-size:2.11667px;fill:#000000;fill-opacity:1;stroke:none;stroke-width:0.185;-inkscape-font-specification:'Latin Modern Sans';font-family:'Latin Modern Sans';font-weight:normal;font-style:normal;font-stretch:normal;font-variant:normal"
         x="41.260826"
         y="17.878113">fx2</tspan></text><text
       xml:space="preserve"
       style="font-style:normal;font-variant:normal;font-weight:normal;font-stretch:normal;font-size:2.11667px;font-family:'Latin Modern Sans';-inkscape-font-specification:'Latin Modern Sans';fill:#000000;fill-opacity:1;stroke:none;stroke-width:0.185;stroke-dasharray:none;stroke-opacity:1"
       x="50.281891"
       y="17.960123"
       id="text1156"><tspan
         sodipodi:role="line"
         id="tspan1154"
         style="font-size:2.11667px;fill:#000000;fill-opacity:1;stroke:none;stroke-width:0.185;-inkscape-font-specification:'Latin Modern Sans';font-family:'Latin Modern Sans';font-weight:normal;font-style:normal;font-stretch:normal;font-variant:normal"
         x="50.281891"
         y="17.960123">fx3</tspan></text><text
       xml:space="preserve"
       style="font-style:normal;font-variant:normal;font-weight:normal;font-stretch:normal;font-size:2.11667px;font-family:'Latin Modern Sans';-inkscape-font-specification:'Latin Modern Sans';fill:#000000;fill-opacity:1;stroke:none;stroke-width:0.185;stroke-dasharray:none;stroke-opacity:1"
       x="59.220947"
       y="17.878113"
       id="text1160"><tspan
         sodipodi:role="line"
         id="tspan1158"
         style="font-size:2.11667px;fill:#000000;fill-opacity:1;stroke:none;stroke-width:0.185;-inkscape-font-specification:'Latin Modern Sans';font-family:'Latin Modern Sans';font-weight:normal;font-style:normal;font-stretch:normal;font-variant:normal"
         x="59.220947"
         y="17.878113">fx4</tspan></text><text
       xml:space="preserve"
       style="font-style:normal;font-variant:normal;font-weight:normal;font-stretch:normal;font-size:2.11667px;font-family:'Latin Modern Sans';-inkscape-font-specification:'Latin Modern Sans';fill:#000000;fill-opacity:1;stroke:none;stroke-width:0.185;stroke-dasharray:none;stroke-opacity:1"
       x="33.938786"
       y="46.686417"
       id="text1166"><tspan
         sodipodi:role="line"
         id="tspan1162"
         style="font-size:2.11667px;text-align:center;text-anchor:middle;fill:#000000;fill-opacity:1;stroke:none;stroke-width:0.185;-inkscape-font-specification:'Latin Modern Sans';font-family:'Latin Modern Sans';font-weight:normal;font-style:normal;font-stretch:normal;font-variant:normal"
         x="33.938786"
         y="46.686417">decay</tspan><tspan
         sodipodi:role="line"
         style="font-size:2.11667px;text-align:center;text-anchor:middle;fill:#000000;fill-opacity:1;stroke:none;stroke-width:0.185;-inkscape-font-specification:'Latin Modern Sans';font-family:'Latin Modern Sans';font-weight:normal;font-style:normal;font-stretch:normal;font-variant:normal"
         x="33.938786"
         y="49.332253"
         id="tspan1164">scale</tspan></text><text
       xml:space="preserve"
       style="font-style:normal;font-variant:normal;font-weight:normal;font-stretch:normal;font-size:2.11667px;font-family:'Latin Modern Sans';-inkscape-font-specification:'Latin Modern Sans';fill:#000000;fill-opacity:1;stroke:none;stroke-width:0.185;stroke-dasharray:none;stroke-opacity:1"
       x="43.041862"
       y="35.451088"
       id="text1172"><tspan
         sodipodi:role="line"
         style="font-size:2.11667px;text-align:center;text-anchor:middle;fill:#000000;fill-opacity:1;stroke:none;stroke-width:0.185;-inkscape-font-specification:'Latin Modern Sans';font-family:'Latin Modern Sans';font-weight:normal;font-style:normal;font-stretch:normal;font-variant:normal"
         x="43.041862"
         y="35.451088"
         id="tspan1170">ratio</tspan></text><text
       xml:space="preserve"
       style="font-style:normal;font-variant:normal;font-weight:normal;font-stretch:normal;font-size:2.11667px;font-family:'Latin Modern Sans';-inkscape-font-specification:'Latin Modern Sans';fill:#000000;fill-opacity:1;stroke:none;stroke-width:0.185;stroke-dasharray:none;stroke-opacity:1"
       x="51.980919"
       y="35.779125"
       id="text1184"><tspan
         sodipodi:role="line"
         style="font-size:2.11667px;text-align:center;text-anchor:middle;fill:#000000;fill-opacity:1;stroke:none;stroke-width:0.185;-inkscape-font-specification:'Latin Modern Sans';font-family:'Latin Modern Sans';font-weight:normal;font-style:normal;font-stretch:normal;font-variant:normal"
         x="51.980919"
         y="35.779125"
         id="tspan1182">crush</tspan></text><text
       xml:space="preserve"
       style="font-style:normal;font-variant:normal;font-weight:normal;font-stretch:normal;font-size:2.11667px;font-family:'Latin Modern Sans';-inkscape-font-specification:'Latin Modern Sans';fill:#000000;fill-opacity:1;stroke:none;stroke-width:0.185;stroke-dasharray:none;stroke-opacity:1"
       x="52.144939"
       y="47.752541"
       id="text1188"><tspan
         sodipodi:role="line"
         style="font-size:2.11667px;text-align:center;text-anchor:middle;fill:#000000;fill-opacity:1;stroke:none;stroke-width:0.185;-inkscape-font-specification:'Latin Modern Sans';font-family:'Latin Modern Sans';font-weight:normal;font-style:normal;font-stretch:normal;font-variant:normal"
         x="52.144939"
         y="47.752541"
         id="tspan1186">bass</tspan></text><text
       xml:space="preserve"
       style="font-style:normal;font-variant:normal;font-weight:normal;font-stretch:normal;font-size:2.11667px;font-family:'Latin Modern Sans';-inkscape-font-specification:'Latin Modern Sans';fill:#000000;fill-opacity:1;stroke:none;stroke-width:0.185;stroke-dasharray:none;stroke-opacity:1"
       x="61.248016"
       y="35.697117"
       id="text1192"><tspan
         sodipodi:role="line"
         style="font-size:2.11667px;text-align:center;text-anchor:middle;fill:#000000;fill-opacity:1;stroke:none;stroke-width:0.185;-inkscape-font-specification:'Latin Modern Sans';font-family:'Latin Modern Sans';font-weight:normal;font-style:normal;font-stretch:normal;font-variant:normal"
         x="61.248016"
         y="35.697117"
         id="tspan1190">shimmer</tspan></text><text
       xml:space="preserve"
       style="font-style:normal;font-variant:normal;font-weight:normal;font-stretch:normal;font-size:2.11667px;font-family:'Latin Modern Sans';-inkscape-font-specification:'Latin Modern Sans';fill:#000000;fill-opacity:1;stroke:none;stroke-width:0.185;stroke-dasharray:none;stroke-opacity:1"
       x="61.083996"
       y="47.834553"
       id="text1196"><tspan
         sodipodi:role="line"
         style="font-size:2.11667px;text-align:center;text-anchor:middle;fill:#000000;fill-opacity:1;stroke:none;stroke-width:0.185;-inkscape-font-specification:'Latin Modern Sans';font-family:'Latin Modern Sans';font-weight:normal;font-style:normal;font-stretch:normal;font-variant:normal"
         x="61.083996"
         y="47.834553"
         id="tspan1194">damp</tspan></text><text
       xml:space="preserve"
       style="font-style:normal;font-variant:normal;font-weight:normal;font-stretch:normal;font-size:2.11667px;font-family:'Latin Modern Sans';-inkscape-font-specification:'Latin Modern Sans';text-align:center;text-anchor:middle;fill:none;fill-opacity:1;stroke:#000000;stroke-width:0.185;stroke-dasharray:none;stroke-opacity:1"
       x="32.358204"
       y="66.572075"
       id="text1200"><tspan
         sodipodi:role="line"
         id="tspan1198"
         style="stroke-width:0.185;-inkscape-font-specification:'Latin Modern Sans';font-family:'Latin Modern Sans';font-weight:normal;font-style:normal;font-stretch:normal;font-variant:normal" /></text><text
       xml:space="preserve"
       style="font-style:normal;font-variant:normal;font-weight:normal;font-stretch:normal;font-size:2.11667px;font-family:'Latin Modern Sans';-inkscape-font-specification:'Latin Modern Sans';fill:#000000;fill-opacity:1;stroke:none;stroke-width:0.185;stroke-dasharray:none;stroke-opacity:1"
       x="33.822803"
       y="67.910614"
       id="text1224"><tspan
         sodipodi:role="line"
         style="font-size:2.11667px;text-align:center;text-anchor:middle;fill:#000000;fill-opacity:1;stroke:none;stroke-width:0.185;-inkscape-font-specification:'Latin Modern Sans';font-family:'Latin Modern Sans';font-weight:normal;font-style:normal;font-stretch:normal;font-variant:normal"
         x="33.822803"
         y="67.910614"
         id="tspan1222">loop1</tspan></text><text
       xml:space="preserve"
       style="font-style:normal;font-variant:normal;font-weight:normal;font-stretch:normal;font-size:2.11667px;font-family:'Latin Modern Sans';-inkscape-font-specification:'Latin Modern Sans';fill:#000000;fill-opacity:1;stroke:none;stroke-width:0.185;stroke-dasharray:none;stroke-opacity:1"
       x="42.869183"
       y="68.026596"
       id="text1230"><tspan
         sodipodi:role="line"
         style="font-size:2.11667px;text-align:center;text-anchor:middle;fill:#000000;fill-opacity:1;stroke:none;stroke-width:0.185;-inkscape-font-specification:'Latin Modern Sans';font-family:'Latin Modern Sans';font-weight:normal;font-style:normal;font-stretch:normal;font-variant:normal"
         x="42.869183"
         y="68.026596"
         id="tspan1228">loop2</tspan></text><text
       xml:space="preserve"
       style="font-style:normal;font-variant:normal;font-weight:normal;font-stretch:normal;font-size:2.11667px;font-family:'Latin Modern Sans';-inkscape-font-specification:'Latin Modern Sans';fill:#000000;fill-opacity:1;stroke:none;stroke-width:0.185;stroke-dasharray:none;stroke-opacity:1"
       x="52.03154"
       y="68.142578"
       id="text1234"><tspan
         sodipodi:role="line"
         style="font-size:2.11667px;text-align:center;text-anchor:middle;fill:#000000;fill-opacity:1;stroke:none;stroke-width:0.185;-inkscape-font-specification:'Latin Modern Sans';font-family:'Latin Modern Sans';font-weight:normal;font-style:normal;font-stretch:normal;font-variant:normal"
         x="52.03154"
         y="68.142578"
         id="tspan1232">loop3</tspan></text><text
       xml:space="preserve"
       style="font-style:normal;font-variant:normal;font-weight:normal;font-stretch:normal;font-size:2.11667px;font-family:'Latin Modern Sans';-inkscape-font-specification:'Latin Modern Sans';fill:#000000;fill-opacity:1;stroke:none;stroke-width:0.185;stroke-dasharray:none;stroke-opacity:1"
       x="33.938782"
       y="92.730171"
       id="text1238"><tspan
         sodipodi:role="line"
         style="font-size:2.11667px;text-align:center;text-anchor:middle;fill:#000000;fill-opacity:1;stroke:none;stroke-width:0.185;-inkscape-font-specification:'Latin Modern Sans';font-family:'Latin Modern Sans';font-weight:normal;font-style:normal;font-stretch:normal;font-variant:normal"
         x="33.938782"
         y="92.730171"
         id="tspan1236">rec</tspan></text><text
       xml:space="preserve"
       style="font-style:normal;font-variant:normal;font-weight:normal;font-stretch:normal;font-size:2.11667px;font-family:'Latin Modern Sans';-inkscape-font-specification:'Latin Modern Sans';text-align:center;text-anchor:middle;fill:none;fill-opacity:1;stroke:#000000;stroke-width:0.185;stroke-dasharray:none;stroke-opacity:1"
       x="42.564373"
       y="92.43544"
       id="text1242"><tspan
         sodipodi:role="line"
         id="tspan1240"
         style="stroke-width:0.185;-inkscape-font-specification:'Latin Modern Sans';font-family:'Latin Modern Sans';font-weight:normal;font-style:normal;font-stretch:normal;font-variant:normal" /></text><text
       xml:space="preserve"
       style="font-style:normal;font-variant:normal;font-weight:normal;font-stretch:normal;font-size:2.11667px;font-family:'Latin Modern Sans';-inkscape-font-specification:'Latin Modern Sans';fill:#000000;fill-opacity:1;stroke:none;stroke-width:0.185;stroke-dasharray:none;stroke-opacity:1"
       x="42.869183"
       y="92.846153"
       id="text1246"><tspan
         sodipodi:role="line"
         style="font-size:2.11667px;text-align:center;text-anchor:middle;fill:#000000;fill-opacity:1;stroke:none;stroke-width:0.185;-inkscape-font-specification:'Latin Modern Sans';font-family:'Latin Modern Sans';font-weight:normal;font-style:normal;font-stretch:normal;font-variant:normal"
         x="42.869183"
         y="92.846153"
         id="tspan1244">rec</tspan></text><text
       xml:space="preserve"
       style="font-style:normal;font-variant:normal;font-weight:normal;font-stretch:normal;font-size:2.11667px;font-family:'Latin Modern Sans';-inkscape-font-specification:'Latin Modern Sans';fill:#000000;fill-opacity:1;stroke:none;stroke-width:0.185;stroke-dasharray:none;stroke-opacity:1"
       x="51.799583"
       y="92.846153"
       id="text1250"><tspan
         sodipodi:role="line"
         style="font-size:2.11667px;text-align:center;text-anchor:middle;fill:#000000;fill-opacity:1;stroke:none;stroke-width:0.185;-inkscape-font-specification:'Latin Modern Sans';font-family:'Latin Modern Sans';font-weight:normal;font-style:normal;font-stretch:normal;font-variant:normal"
         x="51.799583"
         y="92.846153"
         id="tspan1248">rec</tspan></text><text
       xml:space="preserve"
       style="font-style:normal;font-variant:normal;font-weight:normal;font-stretch:normal;font-size:2.11667px;font-family:'Latin Modern Sans';-inkscape-font-specification:'Latin Modern Sans';fill:#000000;fill-opacity:1;stroke:none;stroke-width:0.185;stroke-dasharray:none;stroke-opacity:1"
       x="34.054764"
       y="86.583275"
       id="text1254"><tspan
         sodipodi:role="line"
         style="font-size:2.11667px;text-align:center;text-anchor:middle;fill:#000000;fill-opacity:1;stroke:none;stroke-width:0.185;-inkscape-font-specification:'Latin Modern Sans';font-family:'Latin Modern Sans';font-weight:normal;font-style:normal;font-stretch:normal;font-variant:normal"
         x="34.054764"
         y="86.583275"
         id="tspan1252">play</tspan></text><text
       xml:space="preserve"
       style="font-style:normal;font-variant:normal;font-weight:normal;font-stretch:normal;font-size:2.11667px;font-family:'Latin Modern Sans';-inkscape-font-specification:'Latin Modern Sans';fill:#000000;fill-opacity:1;stroke:none;stroke-width:0.185;stroke-dasharray:none;stroke-opacity:1"
       x="42.637226"
       y="86.583275"
       id="text1258"><tspan
         sodipodi:role="line"
         style="font-size:2.11667px;text-align:center;text-anchor:middle;fill:#000000;fill-opacity:1;stroke:none;stroke-width:0.185;-inkscape-font-specification:'Latin Modern Sans';font-family:'Latin Modern Sans';font-weight:normal;font-style:normal;font-stretch:normal;font-variant:normal"
         x="42.637226"
         y="86.583275"
         id="tspan1256">play</tspan></text><text
       xml:space="preserve"
       style="font-style:normal;font-variant:normal;font-weight:normal;font-stretch:normal;font-size:2.11667px;font-family:'Latin Modern Sans';-inkscape-font-specification:'Latin Modern Sans';fill:#000000;fill-opacity:1;stroke:none;stroke-width:0.185;stroke-dasharray:none;stroke-opacity:1"
       x="51.683605"
       y="86.583275"
       id="text1262"><tspan
         sodipodi:role="line"
         style="font-size:2.11667px;text-align:center;text-anchor:middle;fill:#000000;fill-opacity:1;stroke:none;stroke-width:0.185;-inkscape-font-specification:'Latin Modern Sans';font-family:'Latin Modern Sans';font-weight:normal;font-style:normal;font-stretch:normal;font-variant:normal"
         x="51.683605"
         y="86.583275"
         id="tspan1260">play</tspan></text><text
       xml:space="preserve"
       style="font-style:normal;font-variant:normal;font-weight:normal;font-stretch:normal;font-size:2.11667px;font-family:'Latin Modern Sans';-inkscape-font-specification:'Latin Modern Sans';fill:#000000;fill-opacity:1;stroke:none;stroke-width:0.185;stroke-dasharray:none;stroke-opacity:1"
       x="70.204453"
       y="86.583275"
       id="text348"><tspan
         sodipodi:role="line"
         style="font-style:normal;font-variant:normal;font-weight:normal;font-stretch:normal;font-size:2.11667px;font-family:'Latin Modern Sans';-inkscape-font-specification:'Latin Modern Sans';text-align:center;text-anchor:middle;fill:#000000;fill-opacity:1;stroke:none;stroke-width:0.185"
         x="70.204453"
         y="86.583275"
         id="tspan346">chord1</tspan></text><text
       xml:space="preserve"
       style="font-style:normal;font-variant:normal;font-weight:normal;font-stretch:normal;font-size:2.11667px;font-family:'Latin Modern Sans';-inkscape-font-specification:'Latin Modern Sans';fill:#000000;fill-opacity:1;stroke:none;stroke-width:0.185;stroke-dasharray:none;stroke-opacity:1"
       x="79.729462"
       y="86.583275"
       id="text454"><tspan
         sodipodi:role="line"
         style="font-style:normal;font-variant:normal;font-weight:normal;font-stretch:normal;font-size:2.11667px;font-family:'Latin Modern Sans';-inkscape-font-specification:'Latin Modern Sans';text-align:center;text-anchor:middle;fill:#000000;fill-opacity:1;stroke:none;stroke-width:0.185"
         x="79.729462"
         y="86.583275"
         id="tspan452">chord2</tspan></text><text
       xml:space="preserve"
       style="font-style:normal;font-variant:normal;font-weight:normal;font-stretch:normal;font-size:2.11667px;font-family:'Latin Modern Sans';-inkscape-font-specification:'Latin Modern Sans';fill:#000000;fill-opacity:1;stroke:none;stroke-width:0.185;stroke-dasharray:none;stroke-opacity:1"
       x="88.725304"
       y="86.583275"
       id="text458"><tspan
         sodipodi:role="line"
         style="font-style:normal;font-variant:normal;font-weight:normal;font-stretch:normal;font-size:2.11667px;font-family:'Latin Modern Sans';-inkscape-font-specification:'Latin Modern Sans';text-align:center;text-anchor:middle;fill:#000000;fill-opacity:1;stroke:none;stroke-width:0.185"
         x="88.725304"
         y="86.583275"
         id="tspan456">chord3</tspan></text><text
       xml:space="preserve"
       style="font-style:normal;font-variant:normal;font-weight:normal;font-stretch:normal;font-size:2.11667px;font-family:'Latin Modern Sans';-inkscape-font-specification:'Latin Modern Sans';fill:#000000;fill-opacity:1;stroke:none;stroke-width:0.185;stroke-dasharray:none;stroke-opacity:1"
       x="97.721146"
       y="86.583275"
       id="text462"><tspan
         sodipodi:role="line"
         style="font-style:normal;font-variant:normal;font-weight:normal;font-stretch:normal;font-size:2.11667px;font-family:'Latin Modern Sans';-inkscape-font-specification:'Latin Modern Sans';text-align:center;text-anchor:middle;fill:#000000;fill-opacity:1;stroke:none;stroke-width:0.185"
         x="97.721146"
         y="86.583275"
         id="tspan460">chord4</tspan></text><text
       xml:space="preserve"
       style="font-style:normal;font-variant:normal;font-weight:normal;font-stretch:normal;font-size:2.11667px;font-family:'Latin Modern Sans';-inkscape-font-specification:'Latin Modern Sans';fill:#000000;fill-opacity:1;stroke:none;stroke-width:0.185;stroke-dasharray:none;stroke-opacity:1"
       x="70.204453"
       y="92.933281"
       id="text466"><tspan
         sodipodi:role="line"
         style="font-style:normal;font-variant:normal;font-weight:normal;font-stretch:normal;font-size:2.11667px;font-family:'Latin Modern Sans';-inkscape-font-specification:'Latin Modern Sans';text-align:center;text-anchor:middle;fill:#000000;fill-opacity:1;stroke:none;stroke-width:0.185"
         x="70.204453"
         y="92.933281"
         id="tspan464">chord5</tspan></text><text
       xml:space="preserve"
       style="font-style:normal;font-variant:normal;font-weight:normal;font-stretch:normal;font-size:2.11667px;font-family:'Latin Modern Sans';-inkscape-font-specification:'Latin Modern Sans';fill:#000000;fill-opacity:1;stroke:none;stroke-width:0.185;stroke-dasharray:none;stroke-opacity:1"
       x="79.729462"
       y="92.933281"
       id="text470"><tspan
         sodipodi:role="line"
         style="font-style:normal;font-variant:normal;font-weight:normal;font-stretch:normal;font-size:2.11667px;font-family:'Latin Modern Sans';-inkscape-font-specification:'Latin Modern Sans';text-align:center;text-anchor:middle;fill:#000000;fill-opacity:1;stroke:none;stroke-width:0.185"
         x="79.729462"
         y="92.933281"
         id="tspan468">chord6</tspan></text><text
       xml:space="preserve"
       style="font-style:normal;font-variant:normal;font-weight:normal;font-stretch:normal;font-size:2.11667px;font-family:'Latin Modern Sans';-inkscape-font-specification:'Latin Modern Sans';fill:#000000;fill-opacity:1;stroke:none;stroke-width:0.185;stroke-dasharray:none;stroke-opacity:1"
       x="88.725304"
       y="92.933281"
       id="text474"><tspan
         sodipodi:role="line"
         style="font-style:normal;font-variant:normal;font-weight:normal;font-stretch:normal;font-size:2.11667px;font-family:'Latin Modern Sans';-inkscape-font-specification:'Latin Modern Sans';text-align:center;text-anchor:middle;fill:#000000;fill-opacity:1;stroke:none;stroke-width:0.185"
         x="88.725304"
         y="92.933281"
         id="tspan472">chord7</tspan></text><text
       xml:space="preserve"
       style="font-style:normal;font-variant:normal;font-weight:normal;font-stretch:normal;font-size:2.11667px;font-family:'Latin Modern Sans';-inkscape-font-specification:'Latin Modern Sans';fill:#000000;fill-opacity:1;stroke:none;stroke-width:0.185;stroke-dasharray:none;stroke-opacity:1"
       x="97.721146"
       y="92.933281"
       id="text478"><tspan
         sodipodi:role="line"
         style="font-style:normal;font-variant:normal;font-weight:normal;font-stretch:normal;font-size:2.11667px;font-family:'Latin Modern Sans';-inkscape-font-specification:'Latin Modern Sans';text-align:center;text-anchor:middle;fill:#000000;fill-opacity:1;stroke:none;stroke-width:0.185"
         x="97.721146"
         y="92.933281"
         id="tspan476">chord8</tspan></text><text
       xml:space="preserve"
       style="font-style:normal;font-variant:normal;font-weight:normal;font-stretch:normal;font-size:2.11667px;font-family:'Latin Modern Sans';-inkscape-font-specification:'Latin Modern Sans';fill:#000000;fill-opacity:1;stroke:none;stroke-width:0.185;stroke-dasharray:none;stroke-opacity:1"
       x="61.339497"
       y="67.910614"
       id="text482"><tspan
         sodipodi:role="line"
         style="font-style:normal;font-variant:normal;font-weight:normal;font-stretch:normal;font-size:2.11667px;font-family:'Latin Modern Sans';-inkscape-font-specification:'Latin Modern Sans';text-align:center;text-anchor:middle;fill:#000000;fill-opacity:1;stroke:none;stroke-width:0.185"
         x="61.339497"
         y="67.910614"
         id="tspan480">freeze1</tspan></text><text
       xml:space="preserve"
       style="font-style:normal;font-variant:normal;font-weight:normal;font-stretch:normal;font-size:2.11667px;font-family:'Latin Modern Sans';-inkscape-font-specification:'Latin Modern Sans';fill:#000000;fill-opacity:1;stroke:none;stroke-width:0.185;stroke-dasharray:none;stroke-opacity:1"
       x="70.385872"
       y="68.026596"
       id="text486"><tspan
         sodipodi:role="line"
         style="font-style:normal;font-variant:normal;font-weight:normal;font-stretch:normal;font-size:2.11667px;font-family:'Latin Modern Sans';-inkscape-font-specification:'Latin Modern Sans';text-align:center;text-anchor:middle;fill:#000000;fill-opacity:1;stroke:none;stroke-width:0.185"
         x="70.385872"
         y="68.026596"
         id="tspan484">freeze2</tspan></text><text
       xml:space="preserve"
       style="font-style:normal;font-variant:normal;font-weight:normal;font-stretch:normal;font-size:2.11667px;font-family:'Latin Modern Sans';-inkscape-font-specification:'Latin Modern Sans';fill:#000000;fill-opacity:1;stroke:none;stroke-width:0.185;stroke-dasharray:none;stroke-opacity:1"
       x="79.548233"
       y="68.142578"
       id="text490"><tspan
         sodipodi:role="line"
         style="font-style:normal;font-variant:normal;font-weight:normal;font-stretch:normal;font-size:2.11667px;font-family:'Latin Modern Sans';-inkscape-font-specification:'Latin Modern Sans';text-align:center;text-anchor:middle;fill:#000000;fill-opacity:1;stroke:none;stroke-width:0.185"
         x="79.548233"
         y="68.142578"
         id="tspan488">freeze3</tspan></text><text
       xml:space="preserve"
       style="font-size:2.11667px;font-family:'Latin Modern Roman';-inkscape-font-specification:'Latin Modern Roman, ';text-align:center;text-anchor:middle;fill:none;stroke:#000000;stroke-width:0.185"
       x="86.063141"
       y="66.962578"
       id="text494"><tspan
         sodipodi:role="line"
         id="tspan492"
         style="stroke-width:0.185"></tspan></text><text
       xml:space="preserve"
       style="font-style:normal;font-variant:normal;font-weight:normal;font-stretch:normal;font-size:2.11667px;font-family:'Latin Modern Sans';-inkscape-font-specification:'Latin Modern Sans';fill:#000000;fill-opacity:1;stroke:none;stroke-width:0.185;stroke-dasharray:none;stroke-opacity:1"
       x="88.249084"
       y="68.216324"
       id="text498"><tspan
         sodipodi:role="line"
         style="font-style:normal;font-variant:normal;font-weight:normal;font-stretch:normal;font-size:2.11667px;font-family:'Latin Modern Sans';-inkscape-font-specification:'Latin Modern Sans';text-align:center;text-anchor:middle;fill:#000000;fill-opacity:1;stroke:none;stroke-width:0.185"
         x="88.249084"
         y="68.216324"
         id="tspan496">input</tspan></text><text
       xml:space="preserve"
       style="font-style:normal;font-variant:normal;font-weight:normal;font-stretch:normal;font-size:2.11667px;font-family:'Latin Modern Sans';-inkscape-font-specification:'Latin Modern Sans';fill:#000000;fill-opacity:1;stroke:none;stroke-width:0.185;stroke-dasharray:none;stroke-opacity:1"
       x="97.541252"
       y="68.363823"
       id="text502"><tspan
         sodipodi:role="line"
         style="font-style:normal;font-variant:normal;font-weight:normal;font-stretch:normal;font-size:2.11667px;font-family:'Latin Modern Sans';-inkscape-font-specification:'Latin Modern Sans';text-align:center;text-anchor:middle;fill:#000000;fill-opacity:1;stroke:none;stroke-width:0.185"
         x="97.541252"
         y="68.363823"
         id="tspan500">master</tspan></text><rect
       style="fill:none;fill-opacity:1;stroke:#000000;stroke-width:0.185;stroke-dasharray:none;stroke-opacity:1"
       id="rect510"
       width="8.8199396"
       height="34.116035"
       x="84.02771"
       y="18.616201" /><text
       xml:space="preserve"
       style="font-style:normal;font-variant:normal;font-weight:normal;font-stretch:normal;font-size:2.11667px;font-family:'Latin Modern Sans';-inkscape-font-specification:'Latin Modern Sans';fill:#000000;fill-opacity:1;stroke:none;stroke-width:0.185;stroke-dasharray:none;stroke-opacity:1"
       x="86.208473"
       y="17.878113"
       id="text514"><tspan
         sodipodi:role="line"
         id="tspan512"
         style="font-style:normal;font-variant:normal;font-weight:normal;font-stretch:normal;font-size:2.11667px;font-family:'Latin Modern Sans';-inkscape-font-specification:'Latin Modern Sans';fill:#000000;fill-opacity:1;stroke:none;stroke-width:0.185"
         x="86.208473"
         y="17.878113">input</tspan></text><rect
       style="fill:none;fill-opacity:1;stroke:#000000;stroke-width:0.185;stroke-dasharray:none;stroke-opacity:1"
       id="rect516"
       width="8.8199396"
       height="34.116035"
       x="93.023552"
       y="18.616201" /><text
       xml:space="preserve"
       style="font-style:normal;font-variant:normal;font-weight:normal;font-stretch:normal;font-size:2.11667px;font-family:'Latin Modern Sans';-inkscape-font-specification:'Latin Modern Sans';fill:#000000;fill-opacity:1;stroke:none;stroke-width:0.185;stroke-dasharray:none;stroke-opacity:1"
       x="95.204315"
       y="17.878113"
       id="text520"><tspan
         sodipodi:role="line"
         id="tspan518"
         style="font-style:normal;font-variant:normal;font-weight:normal;font-stretch:normal;font-size:2.11667px;font-family:'Latin Modern Sans';-inkscape-font-specification:'Latin Modern Sans';fill:#000000;fill-opacity:1;stroke:none;stroke-width:0.185"
         x="95.204315"
         y="17.878113">ambi</tspan></text><text
       xml:space="preserve"
       style="font-size:2.11667px;font-family:'Latin Modern Roman';-inkscape-font-specification:'Latin Modern Roman, ';text-align:center;text-anchor:middle;fill:none;stroke:#000000;stroke-width:0.185"
       x="78.172173"
       y="22.64043"
       id="text524"><tspan
         sodipodi:role="line"
         id="tspan522"
         style="stroke-width:0.185"
         x="78.172173"
         y="22.64043" /></text><text
       xml:space="preserve"
       style="font-style:normal;font-variant:normal;font-weight:normal;font-stretch:normal;font-size:2.11667px;font-family:'Latin Modern Sans';-inkscape-font-specification:'Latin Modern Sans';fill:#000000;fill-opacity:1;stroke:none;stroke-width:0.185;stroke-dasharray:none;stroke-opacity:1"
       x="79.023613"
       y="22.311289"
       id="text528"><tspan
         sodipodi:role="line"
         id="tspan526"
         style="font-style:normal;font-variant:normal;font-weight:normal;font-stretch:normal;font-size:2.11667px;font-family:'Latin Modern Sans';-inkscape-font-specification:'Latin Modern Sans';text-align:center;text-anchor:middle;fill:#000000;fill-opacity:1;stroke:none;stroke-width:0.185"
         x="79.023613"
         y="22.311289">ambi</tspan><tspan
         sodipodi:role="line"
         style="font-style:normal;font-variant:normal;font-weight:normal;font-stretch:normal;font-size:2.11667px;font-family:'Latin Modern Sans';-inkscape-font-specification:'Latin Modern Sans';text-align:center;text-anchor:middle;fill:#000000;fill-opacity:1;stroke:none;stroke-width:0.185"
         x="79.023613"
         y="24.957127"
         id="tspan530">verb</tspan></text><text
       xml:space="preserve"
       style="font-style:normal;font-variant:normal;font-weight:normal;font-stretch:normal;font-size:2.11667px;font-family:'Latin Modern Sans';-inkscape-font-specification:'Latin Modern Sans';fill:#000000;fill-opacity:1;stroke:none;stroke-width:0.185;stroke-dasharray:none;stroke-opacity:1"
       x="88.443001"
       y="46.686417"
       id="text536"><tspan
         sodipodi:role="line"
         style="font-style:normal;font-variant:normal;font-weight:normal;font-stretch:normal;font-size:2.11667px;font-family:'Latin Modern Sans';-inkscape-font-specification:'Latin Modern Sans';text-align:center;text-anchor:middle;fill:#000000;fill-opacity:1;stroke:none;stroke-width:0.185"
         x="88.443001"
         y="46.686417"
         id="tspan534">pre</tspan><tspan
         sodipodi:role="line"
         style="font-style:normal;font-variant:normal;font-weight:normal;font-stretch:normal;font-size:2.11667px;font-family:'Latin Modern Sans';-inkscape-font-specification:'Latin Modern Sans';text-align:center;text-anchor:middle;fill:#000000;fill-opacity:1;stroke:none;stroke-width:0.185"
         x="88.443001"
         y="49.332253"
         id="tspan540">gain</tspan></text><text
       xml:space="preserve"
       style="font-size:2.11667px;font-family:'Latin Modern Roman';-inkscape-font-specification:'Latin Modern Roman, ';text-align:center;text-anchor:middle;fill:none;stroke:#000000;stroke-width:0.185"
       x="86.579361"
       y="33.62878"
       id="text544"><tspan
         sodipodi:role="line"
         id="tspan542"
         style="stroke-width:0.185"></tspan></text><text
       xml:space="preserve"
       style="font-style:normal;font-variant:normal;font-weight:normal;font-stretch:normal;font-size:2.11667px;font-family:'Latin Modern Sans';-inkscape-font-specification:'Latin Modern Sans';fill:#000000;fill-opacity:1;stroke:none;stroke-width:0.185;stroke-dasharray:none;stroke-opacity:1"
       x="77.49749"
       y="47.711311"
       id="text550"><tspan
         sodipodi:role="line"
         style="font-style:normal;font-variant:normal;font-weight:normal;font-stretch:normal;font-size:2.11667px;font-family:'Latin Modern Sans';-inkscape-font-specification:'Latin Modern Sans';fill:#000000;fill-opacity:1;stroke:none;stroke-width:0.185"
         x="77.49749"
         y="47.711311"
         id="tspan554">RTT</tspan></text><text
       xml:space="preserve"
       style="font-size:2.11667px;font-family:'Latin Modern Roman';-inkscape-font-specification:'Latin Modern Roman, ';text-align:center;text-anchor:middle;fill:none;stroke:#000000;stroke-width:0.185"
       x="87.390587"
       y="22.861673"
       id="text560"><tspan
         sodipodi:role="line"
         id="tspan558"
         style="fill:#000000;fill-opacity:1;stroke-width:0.185"
         x="87.390587"
         y="22.861673" /></text><text
       xml:space="preserve"
       style="font-size:2.11667px;font-family:'Latin Modern Roman';-inkscape-font-specification:'Latin Modern Roman, ';text-align:center;text-anchor:middle;fill:#000000;fill-opacity:1;stroke:#000000;stroke-width:0.185"
       x="86.358124"
       y="21.976704"
       id="text1118"><tspan
         sodipodi:role="line"
         style="stroke-width:0.185"
         x="86.358124"
         y="21.976704"
         id="tspan1120" /></text><text
       xml:space="preserve"
       style="font-size:2.11667px;font-family:'Latin Modern Roman';-inkscape-font-specification:'Latin Modern Roman, ';text-align:center;text-anchor:middle;fill:#000000;fill-opacity:1;stroke:#000000;stroke-width:0.185"
       x="87.243088"
       y="22.124199"
       id="text1126"><tspan
         sodipodi:role="line"
         id="tspan1124"
         style="stroke-width:0.185"
         x="87.243088"
         y="22.124199" /></text><text
       xml:space="preserve"
       style="font-style:normal;font-variant:normal;font-weight:normal;font-stretch:normal;font-size:2.11667px;font-family:'Latin Modern Sans';-inkscape-font-specification:'Latin Modern Sans';fill:#000000;fill-opacity:1;stroke:none;stroke-width:0.185;stroke-dasharray:none;stroke-opacity:1"
       x="88.548622"
       y="22.311289"
       id="text1132"><tspan
         sodipodi:role="line"
         style="font-style:normal;font-variant:normal;font-weight:normal;font-stretch:normal;font-size:2.11667px;font-family:'Latin Modern Sans';-inkscape-font-specification:'Latin Modern Sans';text-align:center;text-anchor:middle;fill:#000000;fill-opacity:1;stroke:none;stroke-width:0.185"
         x="88.548622"
         y="22.311289"
         id="tspan1130">comp</tspan><tspan
         sodipodi:role="line"
         style="font-style:normal;font-variant:normal;font-weight:normal;font-stretch:normal;font-size:2.11667px;font-family:'Latin Modern Sans';-inkscape-font-specification:'Latin Modern Sans';text-align:center;text-anchor:middle;fill:#000000;fill-opacity:1;stroke:none;stroke-width:0.185"
         x="88.548622"
         y="24.957127"
         id="tspan1136">ratio</tspan></text><text
       xml:space="preserve"
       style="font-style:normal;font-variant:normal;font-weight:normal;font-stretch:normal;font-size:2.11667px;font-family:'Latin Modern Sans';-inkscape-font-specification:'Latin Modern Sans';fill:#000000;fill-opacity:1;stroke:none;stroke-width:0.185;stroke-dasharray:none;stroke-opacity:1"
       x="88.548622"
       y="34.482132"
       id="text1142"><tspan
         sodipodi:role="line"
         style="font-style:normal;font-variant:normal;font-weight:normal;font-stretch:normal;font-size:2.11667px;font-family:'Latin Modern Sans';-inkscape-font-specification:'Latin Modern Sans';text-align:center;text-anchor:middle;fill:#000000;fill-opacity:1;stroke:none;stroke-width:0.185"
         x="88.548622"
         y="34.482132"
         id="tspan1138">comp</tspan><tspan
         sodipodi:role="line"
         style="font-style:normal;font-variant:normal;font-weight:normal;font-stretch:normal;font-size:2.11667px;font-family:'Latin Modern Sans';-inkscape-font-specification:'Latin Modern Sans';text-align:center;text-anchor:middle;fill:#000000;fill-opacity:1;stroke:none;stroke-width:0.185"
         x="88.548622"
         y="37.127968"
         id="tspan1140">thresh</tspan></text><text
       xml:space="preserve"
       style="font-size:2.11667px;font-family:'Latin Modern Roman';-inkscape-font-specification:'Latin Modern Roman, ';text-align:center;text-anchor:middle;fill:#000000;fill-opacity:1;stroke:#000000;stroke-width:0.185"
       x="96.092773"
       y="21.460474"
       id="text1146"><tspan
         sodipodi:role="line"
         id="tspan1144"
         style="stroke-width:0.185"
         x="96.092773"
         y="21.460474" /></text><text
       xml:space="preserve"
       style="font-style:normal;font-variant:normal;font-weight:normal;font-stretch:normal;font-size:2.11667px;font-family:'Latin Modern Sans';-inkscape-font-specification:'Latin Modern Sans';fill:#000000;fill-opacity:1;stroke:none;stroke-width:0.185;stroke-dasharray:none;stroke-opacity:1"
       x="97.438843"
       y="47.744751"
       id="text1153"><tspan
         sodipodi:role="line"
         style="font-style:normal;font-variant:normal;font-weight:normal;font-stretch:normal;font-size:2.11667px;font-family:'Latin Modern Sans';-inkscape-font-specification:'Latin Modern Sans';text-align:center;text-anchor:middle;fill:#000000;fill-opacity:1;stroke:none;stroke-width:0.185"
         x="97.438843"
         y="47.744751"
         id="tspan1151">rotate</tspan></text><text
       xml:space="preserve"
       style="font-style:normal;font-variant:normal;font-weight:normal;font-stretch:normal;font-size:1.41111px;font-family:'Latin Modern Sans';-inkscape-font-specification:'Latin Modern Sans';fill:#000000;fill-opacity:1;stroke:none;stroke-width:0.185;stroke-dasharray:none;stroke-opacity:1"
       x="108.72228"
       y="56.70145"
       id="text1153-9"><tspan
         sodipodi:role="line"
         style="font-style:normal;font-variant:normal;font-weight:normal;font-stretch:normal;font-size:1.41111px;font-family:'Latin Modern Sans';-inkscape-font-specification:'Latin Modern Sans';text-align:center;text-anchor:middle;fill:#000000;fill-opacity:1;stroke:none;stroke-width:0.185"
         x="108.72228"
         y="56.70145"
         id="tspan1151-9">fx</tspan><tspan
         sodipodi:role="line"
         style="font-style:normal;font-variant:normal;font-weight:normal;font-stretch:normal;font-size:1.41111px;font-family:'Latin Modern Sans';-inkscape-font-specification:'Latin Modern Sans';text-align:center;text-anchor:middle;fill:#000000;fill-opacity:1;stroke:none;stroke-width:0.185"
         x="108.72228"
         y="58.46534"
         id="tspan1926">bypass</tspan></text><text
       xml:space="preserve"
       style="font-style:normal;font-variant:normal;font-weight:normal;font-stretch:normal;font-size:2.11667px;font-family:'Latin Modern Sans';-inkscape-font-specification:'Latin Modern Sans';fill:#000000;fill-opacity:1;stroke:none;stroke-width:0.185;stroke-dasharray:none;stroke-opacity:1"
       x="97.544464"
       y="23.369623"
       id="text1159"><tspan
         sodipodi:role="line"
         style="font-style:normal;font-variant:normal;font-weight:normal;font-stretch:normal;font-size:2.11667px;font-family:'Latin Modern Sans';-inkscape-font-specification:'Latin Modern Sans';text-align:center;text-anchor:middle;fill:#000000;fill-opacity:1;stroke:none;stroke-width:0.185"
         x="97.544464"
         y="23.369623"
         id="tspan1157">push</tspan></text><text
       xml:space="preserve"
       style="font-style:normal;font-variant:normal;font-weight:normal;font-stretch:normal;font-size:2.11667px;font-family:'Latin Modern Sans';-inkscape-font-specification:'Latin Modern Sans';fill:#000000;fill-opacity:1;stroke:none;stroke-width:0.185;stroke-dasharray:none;stroke-opacity:1"
       x="97.544464"
       y="35.540466"
       id="text1165"><tspan
         sodipodi:role="line"
         style="font-style:normal;font-variant:normal;font-weight:normal;font-stretch:normal;font-size:2.11667px;font-family:'Latin Modern Sans';-inkscape-font-specification:'Latin Modern Sans';text-align:center;text-anchor:middle;fill:#000000;fill-opacity:1;stroke:none;stroke-width:0.185"
         x="97.544464"
         y="35.540466"
         id="tspan1163">tumble</tspan></text><text
       xml:space="preserve"
       style="font-style:normal;font-variant:normal;font-weight:normal;font-stretch:normal;font-size:2.11667px;font-family:'Latin Modern Sans';-inkscape-font-specification:'Latin Modern Sans';fill:#000000;fill-opacity:1;stroke:none;stroke-width:0.185;stroke-dasharray:none;stroke-opacity:1"
       x="70.079834"
       y="46.776218"
       id="text1930"><tspan
         sodipodi:role="line"
         style="font-style:normal;font-variant:normal;font-weight:normal;font-stretch:normal;font-size:2.11667px;font-family:'Latin Modern Sans';-inkscape-font-specification:'Latin Modern Sans';text-align:center;text-anchor:middle;fill:#000000;fill-opacity:1;stroke:none;stroke-width:0.185"
         x="70.079834"
         y="46.776218"
         id="tspan1928">freeze</tspan><tspan
         sodipodi:role="line"
         style="font-style:normal;font-variant:normal;font-weight:normal;font-stretch:normal;font-size:2.11667px;font-family:'Latin Modern Sans';-inkscape-font-specification:'Latin Modern Sans';text-align:center;text-anchor:middle;fill:#000000;fill-opacity:1;stroke:none;stroke-width:0.185"
         x="70.079834"
         y="49.422054"
         id="tspan1932">amp</tspan></text><text
       xml:space="preserve"
       style="font-size:1.41111px;font-family:'Latin Modern Roman';-inkscape-font-specification:'Latin Modern Roman, ';text-align:center;text-anchor:middle;fill:#000000;fill-opacity:1;stroke:#000000;stroke-width:0.185"
       x="68.290031"
       y="34.956234"
       id="text1936"><tspan
         sodipodi:role="line"
         id="tspan1934"
         style="stroke-width:0.185"></tspan></text><text
       xml:space="preserve"
       style="font-style:normal;font-variant:normal;font-weight:normal;font-stretch:normal;font-size:2.11667px;font-family:'Latin Modern Sans';-inkscape-font-specification:'Latin Modern Sans';fill:#000000;fill-opacity:1;stroke:none;stroke-width:0.185;stroke-dasharray:none;stroke-opacity:1"
       x="70.079834"
       y="34.605373"
       id="text1942"><tspan
         sodipodi:role="line"
         style="font-style:normal;font-variant:normal;font-weight:normal;font-stretch:normal;font-size:2.11667px;font-family:'Latin Modern Sans';-inkscape-font-specification:'Latin Modern Sans';text-align:center;text-anchor:middle;fill:#000000;fill-opacity:1;stroke:none;stroke-width:0.185"
         x="70.079834"
         y="34.605373"
         id="tspan1938">freeze</tspan><tspan
         sodipodi:role="line"
         style="font-style:normal;font-variant:normal;font-weight:normal;font-stretch:normal;font-size:2.11667px;font-family:'Latin Modern Sans';-inkscape-font-specification:'Latin Modern Sans';text-align:center;text-anchor:middle;fill:#000000;fill-opacity:1;stroke:none;stroke-width:0.185"
         x="70.079834"
         y="37.251209"
         id="tspan1940">thresh</tspan></text></g></svg>
